<?xml version="1.0" encoding="UTF-8"?>
<svg width="802px" height="405px" viewBox="0 0 802 405" version="1.1" xmlns="http://www.w3.org/2000/svg" xmlns:xlink="http://www.w3.org/1999/xlink">
    <!-- Generator: Sketch 56.3 (81716) - https://sketch.com -->
    <title>Group 2</title>
    <desc>Created with Sketch.</desc>
    <defs>
        <rect id="path-1" x="0" y="0" width="188" height="94"></rect>
    </defs>
    <g id="Page-1" stroke="none" stroke-width="1" fill="none" fill-rule="evenodd">
        <g id="Group-2">
            <g id="docker-containers-2">
                <g id="Group-2" transform="translate(357.000000, 7.000000)" fill-rule="nonzero">
                    <rect id="Rectangle" fill="#158AB9" x="0" y="0" width="142" height="93" rx="6"></rect>
                    <g id="logo-mysql" transform="translate(23.000000, 19.000000)" fill="#FFFFFF">
                        <path d="M66.0245595,6 C65.6006407,6 65.3016551,6.06409971 65,6.15691075 L65,6.21967505 L65.0485852,6.21967505 C65.2504004,6.71845092 65.6006407,7.06498998 65.8483716,7.50166926 C66.049653,8.00178055 66.2247731,8.50055642 66.4244527,9 C66.4490123,8.96995326 66.4730379,8.9372357 66.4730379,8.9372357 C66.8254138,8.62608502 67,8.12597374 67,7.37480525 C66.8489055,7.1551302 66.8254138,6.93812597 66.6994127,6.71845092 C66.5499199,6.40663254 66.2247731,6.25038949 66.0245595,6" id="Fill-3"></path>
                        <path d="M23,59 L19.3084311,59 C19.1786227,52.7849546 18.8188029,46.9407786 18.2306797,41.4663362 L18.1982276,41.4663362 L12.5783207,59 L9.76751324,59 L4.18176642,41.4663362 L4.14874499,41.4663362 C3.73483836,46.7238228 3.47408288,52.5679988 3.36533987,59 L0,59 C0.217486014,51.1776642 0.761770385,43.8448988 1.63285311,37 L6.20746077,37 L11.5330214,53.1649112 L11.5660429,53.1649112 L16.9240556,37 L21.301104,37 C22.2598643,45.0165737 22.8257835,52.3516109 23,59" id="Fill-4"></path>
                        <path d="M39,43 C37.5493936,51.1360527 35.6361317,57.0485349 33.2607638,60.7368788 C31.4101417,63.5789596 29.3831391,65 27.1753601,65 C26.5868755,65 25.8615723,64.8165483 25,64.4524848 L25,62.4913128 C25.4208956,62.5549245 25.9143216,62.5890022 26.4824758,62.5890022 C27.5121865,62.5890022 28.3418894,62.294798 28.9737823,61.7075255 C29.729856,60.9918936 30.1078928,60.1876597 30.1078928,59.2965277 C30.1078928,58.6876726 29.8128262,57.4387247 29.2254406,55.5491158 L25.315397,43 L28.8155344,43 L31.621139,52.3855686 C32.251933,54.5165612 32.5145806,56.0040532 32.4096315,56.8520201 C33.9443071,52.6150252 35.0163272,47.9974958 35.6262412,43 L39,43" id="Fill-5"></path>
                        <polyline id="Fill-6" points="88 59 78 59 78 37 81.3650035 37 81.3650035 56.2937319 88 56.2937319 88 59"></polyline>
                        <path d="M62.0096358,54.6921007 C61.1260793,53.2767102 60.6834564,51.0053589 60.6834564,47.8735622 C60.6834564,42.4059508 62.3537104,39.6704635 65.6925291,39.6704635 C67.438243,39.6704635 68.7193718,40.3246261 69.5387311,41.6318303 C70.4211613,43.0477813 70.8637843,45.2995134 70.8637843,48.3875872 C70.8637843,53.8989215 69.1935302,56.6557098 65.8547116,56.6557098 C64.1095608,56.6557098 62.8278689,56.0021077 62.0096358,54.6921007 M75,59.5593623 L70.9904893,57.5912689 C71.347516,57.2997825 71.6865223,56.9853136 71.9934301,56.6215162 C73.6957828,54.629319 74.5478038,51.6808224 74.5478038,47.7771475 C74.5478038,40.5936904 71.714679,37 66.0489926,37 C63.2699287,37 61.1041171,37.9108949 59.5532474,39.7354873 C57.8503316,41.7299267 57,44.6672123 57,48.5490258 C57,52.3658154 57.7534727,55.165766 59.2615442,56.9443934 C60.6406582,58.5520527 62.7197472,59.3570035 65.4993743,59.3570035 C66.5372294,59.3570035 67.4894882,59.2297585 68.3550244,58.9752685 L73.5763984,62 L75,59.5593623" id="Fill-7"></path>
                        <path d="M56,52.7778337 C56,54.5953525 55.3053237,56.0875437 53.9205755,57.2549606 C52.5346763,58.4173981 50.6728058,59 48.341295,59 C46.1605755,59 44.0471942,58.3294269 42,56.9987928 L42.9576978,55.1580364 C44.7194245,56.004552 46.3136691,56.4272565 47.745036,56.4272565 C49.0877698,56.4272565 50.138705,56.1401051 50.8989928,55.5724417 C51.657554,55.0009054 52.1122302,54.2036315 52.1122302,53.192239 C52.1122302,51.9196992 51.1890647,50.8319543 49.4952518,49.9195986 C47.9315108,49.0946609 44.8063309,47.3723059 44.8063309,47.3723059 C43.1130935,46.184971 42.2641727,44.9107713 42.2641727,42.8116339 C42.2641727,41.075447 42.8972662,39.6723336 44.1617266,38.6045067 C45.4290647,37.53502 47.0641727,37 49.0664748,37 C51.1361151,37 53.0181295,37.531147 54.7130935,38.5890149 L53.8520863,40.4281116 C52.4017266,39.8372105 50.9715108,39.5406534 49.5614388,39.5406534 C48.4172662,39.5406534 47.5355396,39.8045671 46.9208633,40.3357141 C46.3027338,40.8624349 45.9205755,41.5402007 45.9205755,42.366245 C45.9205755,43.6354651 46.8638849,44.7364887 48.6054676,45.6665493 C50.188777,46.4920403 53.3905036,48.247592 53.3905036,48.247592 C55.1320863,49.4327138 56,50.6964012 56,52.7778337" id="Fill-8"></path>
                        <path d="M92.9231566,29.3913858 C90.8001404,29.3385066 89.1560213,29.5488982 87.7771375,30.1283187 C87.3792845,30.2863936 86.7433998,30.2863936 86.6889925,30.7864955 C86.9026543,30.996887 86.9281577,31.3389139 87.1151827,31.6297492 C87.4325583,32.1562906 87.9885324,32.8656589 88.4934997,33.235813 C89.0506072,33.6571586 89.6077148,34.0768166 90.192026,34.4452831 C91.2257638,35.0798329 92.3932527,35.4466118 93.3997868,36.0789115 C93.9852315,36.4473779 94.566709,36.9204776 95.1521537,37.3165088 C95.4428924,37.5274629 95.6270836,37.8700523 96,38 L96,37.9206813 C95.8129751,37.6844127 95.7608348,37.3418233 95.5760768,37.0774275 C95.3114082,36.8158444 95.0456061,36.5773257 94.7798041,36.3151801 C94.0101682,35.2885369 93.0540741,34.3940915 92.0220366,33.6571586 C91.17249,33.0760504 89.3147091,32.2862383 88.9712633,31.315287 C88.9712633,31.315287 88.943493,31.2871598 88.9174228,31.2612828 C89.5011673,31.2078411 90.192026,30.996887 90.7485668,30.8371244 C91.6491202,30.6008559 92.4714631,30.6542976 93.3997868,30.418029 C93.8248435,30.3117081 94.2493334,30.1795102 94.6755235,30.0501251 L94.6755235,29.8116063 C94.1954929,29.3385066 93.8520471,28.7056444 93.3482133,28.2584217 C91.9965332,27.1001432 90.5094016,25.9694293 88.9712633,25.0198546 C88.1477869,24.4933132 87.0868455,24.1524114 86.2112289,23.7035012 C85.89442,23.5454262 85.364516,23.4672326 85.1780578,23.2028368 C84.7002942,22.6234163 84.4339253,21.8611688 84.0899128,21.1754274 C83.3214104,19.7291262 82.5772779,18.123625 81.915323,16.5940673 C81.4381261,15.5679866 81.1462539,14.541906 80.5625094,13.5934564 C77.8291118,9.1167295 74.8593828,6.40639145 70.2971081,3.74668237 C69.3155106,3.19257631 68.1485885,2.95630774 66.9028891,2.66659746 C66.2386673,2.6390328 65.5761456,2.58784127 64.9130573,2.56196424 C64.4880006,2.37688719 64.062944,1.87622283 63.6922946,1.63939172 C62.1796597,0.692067247 58.2821736,-1.36121916 57.1673917,1.35024399 C56.4510296,3.06262859 58.2283331,4.74688599 58.8387145,5.61601682 C59.2892745,6.22075185 59.8735857,6.90649326 60.1903946,7.58998449 C60.376286,8.03776969 60.4295598,8.51255701 60.616018,8.9856567 C61.0399411,10.1439353 61.4372274,11.4344117 61.9954685,12.5144966 C62.2862072,13.0674776 62.6041496,13.6474607 62.9753657,14.1453123 C63.1895943,14.4367102 63.5596769,14.5666579 63.6395876,15.0420078 C63.2695049,15.5679866 63.2406011,16.3577987 63.0286395,17.016538 C62.0742456,19.9918344 62.444895,23.6776241 63.7982754,25.8625459 C64.2216318,26.5207226 65.2309996,27.969274 66.5838133,27.4151679 C67.7773723,26.9420682 67.512137,25.4412003 67.8567162,24.1254093 C67.9360601,23.8075718 67.8827864,23.5988679 68.0414742,23.3884764 L68.0414742,23.4419181 C68.4126903,24.1777259 68.7850399,24.8870942 69.1296192,25.6262773 C69.9530956,26.9150661 71.3841196,28.2584217 72.5788122,29.152867 C73.2135634,29.6282169 73.717964,30.4433435 74.51367,30.7336163 L74.51367,30.6542976 L74.4615297,30.6542976 C74.3017084,30.418029 74.0636767,30.3117081 73.8511484,30.1283187 C73.3739515,29.6540939 72.8446143,29.0746734 72.4716979,28.5486945 C71.3580495,27.0748287 70.3753185,25.4412003 69.5019688,23.7563803 C69.0763454,22.938441 68.705696,22.0439957 68.36055,21.2283066 C68.2018622,20.9138444 68.2018622,20.4384945 67.9360601,20.2809821 C67.5370736,20.8598401 66.9550294,21.3605045 66.6637239,22.0693102 C66.1593234,23.2028368 66.1066163,24.5979465 65.9195914,26.0464978 C65.8141774,26.0740625 65.8674511,26.0464978 65.8141774,26.0988145 C64.966331,25.8884229 64.6744588,25.0198546 64.355383,24.2846093 C63.5596769,22.4130247 63.4259258,19.4118513 64.1167845,17.2528066 C64.3015425,16.7009507 65.0995155,14.9632516 64.7798729,14.4367102 C64.6194848,13.9343582 64.0895809,13.6474607 63.7982754,13.250867 C63.4542629,12.7507652 63.0807798,12.1201531 62.8444483,11.566047 C62.2074301,10.0921812 61.8872207,8.45911531 61.1997624,6.98524945 C60.8812533,6.29950804 60.3230123,5.58845215 59.8735857,4.95784008 C59.3686184,4.24678418 58.8120776,3.74668237 58.4136578,2.90511621 C58.2821736,2.61484339 58.0962822,2.14061862 58.307677,1.82559385 C58.3598173,1.61463977 58.4674983,1.53532103 58.6800267,1.48187933 C59.0229057,1.1927316 60.0056366,1.56063552 60.3496491,1.71871045 C61.3318134,2.11249141 62.1541563,2.48320805 62.9753657,3.03506393 C63.3471486,3.29889717 63.7450016,3.79899898 64.2216318,3.93175942 L64.7798729,3.93175942 C65.6282859,4.11458629 66.5838133,3.98295094 67.380086,4.22090715 C68.7850399,4.6681298 70.0579429,5.32630654 71.1993617,6.03736244 C74.6729246,8.22284674 77.5378064,11.330341 79.4732309,15.0420078 C79.7923068,15.6467428 79.9260579,16.2002863 80.2173634,16.8308984 C80.774471,18.123625 81.464763,19.4399785 82.0207371,20.7023277 C82.5772779,21.939925 83.1088821,23.2028368 83.9057216,24.2311676 C84.3024412,24.7830235 85.89442,25.0727338 86.6107821,25.3624441 C87.1401193,25.5987126 87.9635957,25.8096667 88.4413594,26.0988145 C89.3430462,26.6512329 90.2430328,27.2840951 91.0931461,27.8905178 C91.5165025,28.2061051 92.843246,28.8637193 92.9231566,29.3913858" id="Fill-9"></path>
                        <path d="M90.8228706,59 L91.4282346,59 L91.4282346,56.5088496 L92.2204539,56.5088496 L92.2204539,56 L90,56 L90,56.5088496 L90.8228706,56.5088496 L90.8228706,59 Z M95.4294135,59 L96,59 L96,56 L95.1417625,56 L94.4432655,58.0448799 L93.6828765,56 L92.8558798,56 L92.8558798,59 L93.3958149,59 L93.3958149,56.7168142 L93.4264663,56.7168142 L94.2228117,59 L94.634247,59 L95.4294135,56.7168142 L95.4294135,59 Z" id="Fill-10"></path>
                    </g>
                </g>
                <g id="Group" transform="translate(660.000000, 7.000000)" fill="#158AB9" fill-rule="nonzero">
                    <rect id="Rectangle" x="0" y="0" width="142" height="93" rx="6"></rect>
                </g>
                <g id="Group">
                    <rect id="Rectangle" fill-opacity="0.86" fill="#1A9AC4" fill-rule="nonzero" x="0" y="0" width="196" height="108" rx="6"></rect>
                    <text id="--PHP" fill="#FFFFFF" font-family="Avenir-Book, Avenir" font-size="18" font-weight="normal">
                        <tspan x="98" y="31">- PHP</tspan>
                    </text>
                    <text id="--WP-CLI" fill="#FFFFFF" font-family="Avenir-Book, Avenir" font-size="18" font-weight="normal">
                        <tspan x="98" y="56">- WP-CLI</tspan>
                    </text>
                    <text id="-" fill="#FFFFFF" font-family="Avenir-Book, Avenir" font-size="18" font-weight="normal">
                        <tspan x="98" y="81">-</tspan>
                    </text>
                    <text id="Makefile" fill="#FFFFFF" font-family="Avenir-BookOblique, Avenir" font-size="18" font-style="italic" font-weight="normal">
                        <tspan x="108.998" y="81">Makefile</tspan>
                    </text>
                    <g id="toolbox" transform="translate(17.000000, 19.000000)" fill="#FFFFFF" fill-rule="nonzero">
                        <path d="M9.14168322,15.0879249 C9.26234335,15.0269919 9.37957954,14.9610992 9.49311785,14.8953482 C9.55077724,14.9739943 9.61103883,15.0492395 9.68198315,15.1213673 L16.3286996,22 C16.7446415,21.4952476 17.3569814,21.1772621 18.0206807,21.1772621 C18.235568,21.1772621 18.4494967,21.2091457 18.6554818,21.2726294 L19.4842156,21.527698 L20,19.7322986 L12.6126138,12.0883184 C12.4953777,11.9684362 12.3693762,11.8676841 12.2333767,11.7815276 L12.2507704,11.7024564 C12.268301,11.6297618 12.2910361,11.5752055 12.3124016,11.5124303 C12.3293844,11.465526 12.3473259,11.4163544 12.3641717,11.3647739 C12.3856742,11.3147521 12.4070396,11.2616128 12.4285421,11.2062063 C12.4652469,11.1139565 12.5042799,11.0139129 12.5544066,10.9123106 L12.6931452,10.6208239 L12.851195,10.3320296 C12.9178936,10.1993939 12.9932206,10.0841879 13.0790933,9.95240251 C13.1251113,9.88268376 13.1712662,9.81013092 13.2182428,9.73658615 C13.2597411,9.67919572 13.3032938,9.62067165 13.3461617,9.56002201 C13.4538109,9.41307417 13.5542012,9.27363668 13.6632199,9.15304592 L13.7393686,9.0661809 C13.8835856,8.90336212 14.0278025,8.73501686 14.1957132,8.59161164 C14.2491269,8.54229838 14.2893926,8.50403809 14.3318496,8.46521099 C14.3885503,8.41051295 14.4460727,8.35468127 14.50743,8.30465949 L14.8311991,8.0612107 C14.8421557,8.05469228 14.8495515,8.04760704 14.8568102,8.04023839 C14.9863727,7.9332513 15.1418202,7.84256025 15.3079504,7.74676782 C15.3745121,7.70921606 15.4390194,7.67194771 15.5043484,7.63170355 C15.643361,7.53945375 15.7867561,7.47979605 15.9393275,7.41659572 C16.016298,7.3831534 16.0914881,7.35141153 16.1684585,7.31726068 C16.212696,7.29912247 16.2580292,7.27800846 16.3025406,7.25760297 C16.3508868,7.23705578 16.3984113,7.21225745 16.4467575,7.19978743 L16.8028487,7.09634295 C16.8735191,7.07820474 16.955694,7.05368981 17.0385537,7.02889148 C17.1542834,6.9938904 17.2663151,6.96073149 17.3416421,6.95024534 L18.2948709,6.80598988 C18.4336095,6.78515928 18.556461,6.71841634 18.6510991,6.62177369 C18.7543655,6.51365295 18.8236664,6.36741363 18.8333904,6.20657872 C18.8537972,5.89992961 18.6654797,5.61963758 18.3808806,5.53319768 L17.4414846,5.25673168 C17.2780935,5.20600137 17.1045676,5.17964428 16.9373416,5.15427913 C16.8628364,5.14237593 16.7866877,5.13103955 16.7061563,5.11715248 L16.2948709,5.05125977 C16.1658563,5.02957894 16.0449223,5.02646143 15.9372732,5.02419416 C15.8949531,5.0226354 15.8522221,5.02178518 15.8077107,5.0195179 C15.7000616,5.01795915 15.6219955,5.0135663 15.5414641,5.00974027 C15.3019243,4.99939582 15.031021,4.98848456 14.743135,5.02731166 L14.5608437,5.04247407 C14.2852838,5.06613877 13.9697322,5.09249585 13.6528111,5.171142 L13.1446963,5.27742057 C12.988427,5.31738132 12.857632,5.35918422 12.726563,5.40141224 L12.566185,5.45214255 C12.1987263,5.5575709 11.8512634,5.70848647 11.5147572,5.85529261 L11.4686023,5.87527298 C11.1800315,5.99898124 10.9180305,6.1435201 10.6647949,6.2830993 L10.4547011,6.39887209 C10.4400466,6.40638244 10.428816,6.41502643 10.4141615,6.4229619 C10.3329453,6.47525096 10.2498117,6.52683149 10.1691433,6.57770351 C9.94987331,6.71501542 9.72156406,6.85728701 9.5106485,7.01939726 L9.15921386,7.27885869 C9.15181812,7.28537711 9.11730466,7.31130908 9.1086763,7.31867773 L8.76093953,7.60591329 C8.66726015,7.6807334 8.58083955,7.75668716 8.49797987,7.83164898 C7.8716702,7.93948631 7.26987605,8.24018382 6.78737246,8.74082676 L6.04273095,9.51000023 C5.69992467,9.86511237 5.37834692,10.3630629 5.11346983,10.9209546 C3.94617544,10.6889839 2.36225433,12.4724801 0,14.9158953 L5.28233925,20.3786141 C7.09333699,18.5040017 9.36739026,16.2956746 9.14168322,15.0879249 Z" id="Path"></path>
                        <path d="M51.027892,14.3583618 L54.2307287,15 L57.4906411,10.7370648 C58.0859169,9.96354949 59.0759781,9.6094198 60,9.83576792 L60,8 L55.1853316,8 L55.1853316,11.9890785 L50,11.9890785 L51.027892,14.3583618 Z" id="Path"></path>
                        <polygon id="Path" points="20.083934 16 21 13 17 13"></polygon>
                        <path d="M60.3524587,34.177113 L60.3524587,21.2132563 C60.261337,21.3379115 60.1710475,21.4638132 60.073962,21.5856982 C58.6641415,23.3636959 56.7933035,24.6433501 54.6963949,25.3247981 L55.2884779,25.3247981 L55.2884779,34.177113 L43.4139478,34.177113 L41.7157833,34.177113 L48.0755784,25.517321 C48.1909715,25.369951 48.2972108,25.2175947 48.3956833,25.0617758 C51.9488747,25.9511209 55.8582312,24.7666201 58.2763542,21.7190792 C60.0406755,19.4945391 60.7267927,16.6224848 60.1570394,13.8375507 C60.0937951,13.5218962 59.85122,13.2721704 59.538466,13.1968233 C59.2239089,13.1228613 58.8954824,13.2361589 58.694238,13.4878238 L54.5948712,18.6563026 L49.2652922,17.6259586 L47.040092,12.67992 L51.1412618,7.51102572 C51.3419515,7.25894535 51.3769023,6.91268109 51.2323835,6.62542026 C51.0874487,6.33705139 50.7891188,6.15921007 50.467627,6.16821294 C47.6214956,6.25200889 44.9782729,7.57543088 43.2133968,9.79983245 C40.7980478,12.8458499 40.5368877,16.9150089 42.2123064,20.1644912 C42.0855405,20.2978722 41.9609936,20.4392865 41.8411623,20.5897037 L33.6112227,30.3670982 L35.6030015,32.3564556 C36.1190804,32.8718353 36.4799612,33.4963575 36.672884,34.1769745 L35.7849675,34.1769745 C35.6225573,33.7305707 35.3659742,33.3114524 35.006203,32.9531382 L23.6772935,21.6374993 L23.3828469,22.6239369 L24.150516,22.8520558 C24.7281749,23.0228333 25.20431,23.4082947 25.4911284,23.936971 C25.7776694,24.4655087 25.8413297,25.0749338 25.6699044,25.651256 C25.5773958,25.9601238 25.4185916,26.24503 25.2088869,26.4856144 C25.2681091,27.0142907 25.2230337,27.5497537 25.0670034,28.0647179 L24.0496858,31.4863628 L26.7439477,34.1753125 L25.8807187,34.1753125 L23.9950405,34.1753125 L22.102705,34.1753125 L24.1032215,27.4493371 C24.2750629,26.8767545 24.2605001,26.2923989 24.0996155,25.759983 C24.3814409,25.6163526 24.6077888,25.3616406 24.7055678,25.0343516 C24.8930816,24.4002725 24.5313687,23.7326751 23.8957359,23.5449998 L22.1175452,23.0163236 L26.9510172,6.7696047 L27.1031641,6.81475756 L28.35529,4.3939549 L28.846404,0.61842796 L26.7596201,0 L25.135518,3.44048164 L24.8746353,6.15477789 L25.02914,6.20076178 L20.1955293,22.4484502 L18.3448019,21.8995521 C17.7113882,21.7111843 17.0416368,22.0726842 16.8534296,22.7067633 C16.7627239,23.0132764 16.8000325,23.3267148 16.9344266,23.5915377 C16.4892202,23.9523451 16.1424862,24.4476415 15.9666227,25.0380913 L13.2519728,34.177113 L11.4427148,34.177113 L10.7122156,34.177113 L10.7122156,25.3256291 L14.0759515,25.3256291 L14.6771883,23.3016453 C14.8286417,22.7945759 14.9322458,22.6551007 15.2343204,22.2322428 L9.80404985,16.6760865 C9.06037476,17.6988126 8.32405043,18.7599048 7.17871866,19.8952361 L5.6475413,21.4228155 L5.6475413,34.177113 L4,34.177113 L4,51.8832665 C4,57.469894 8.53736119,62 14.1323998,62 L51.8698193,62 C57.4655514,62 62,57.4705865 62,51.8832665 L62,34.177113 L60.3524587,34.177113 Z M20.5874774,27.8885387 C20.7871962,27.2147084 21.4960592,26.8321557 22.1708036,27.0314654 C22.8426354,27.2313291 23.2276488,27.9390932 23.0272366,28.6123695 L21.373038,34.1772516 L18.7169168,34.1772516 L20.5874774,27.8885387 Z M16.4840885,26.671489 C16.683946,25.9987669 17.3929477,25.6152446 18.0671373,25.8145543 C18.7410495,26.0142795 19.1250921,26.7219051 18.9245411,27.3947658 L16.9073814,34.1772516 L14.251815,34.1772516 L16.4840885,26.671489 Z" id="Shape"></path>
                        <path d="M25,18.639863 L31.1790547,25 L34.4911462,25 L40,18.2540533 C39.2434309,16.2398587 39.0724571,14.0710052 39.4472164,12 L26.9159639,12 L25,18.639863 Z" id="Path"></path>
                    </g>
                </g>
                <g id="Group-3" transform="translate(660.000000, 230.000000)" fill-rule="nonzero">
                    <rect id="Rectangle" fill="#158AB9" x="0" y="0" width="142" height="93" rx="6"></rect>
                    <g id="nginx" transform="translate(23.000000, 41.000000)" fill="#FFFFFF">
                        <g id="svg_1">
                            <path d="M15.323876,17.2726536 C16.0571802,18.1635068 17.3142733,18.5594415 18.3618508,18.5594415 C19.8284593,18.5594415 20.8760368,17.6190965 20.8760368,16.5302759 L20.8760368,2.02916561 C20.8760368,0.890853193 19.8808381,0 18.7285029,0 L18.6237451,0 C17.419031,0 16.4762112,0.940345037 16.4762112,2.02916561 L16.4762112,12.5709284 L6.52422495,1.28678794 C5.7909207,0.395934752 4.53382769,0 3.48625019,0 C2.01964168,0 0.972064174,0.940345037 0.972064174,2.02916561 L0.972064174,16.5302759 C0.972064174,17.6685883 1.9672628,18.5594415 3.11959806,18.5594415 L3.22435581,18.5594415 C4.42906994,18.5594415 5.37188969,17.6190965 5.37188969,16.5302759 L5.37188969,5.98851313 L15.323876,17.2726536 Z" id="svg_2"></path>
                            <g id="svg_3" transform="translate(76.000000, 0.000000)">
                                <path d="M20.0379748,15.0455206 L13.9620252,9.30446668 L20.0379748,3.56341277 C20.8760368,2.77154327 20.8760368,1.48475532 20.0379748,0.692885816 L19.933217,0.593902128 C19.095155,-0.197967376 17.7333043,-0.197967376 16.8952422,0.593902128 L11.6049758,5.59257838 L11.2383237,5.93902128 L11.0288082,6.13698866 C10.9240505,6.23597235 10.8192927,6.23597235 10.714535,6.13698866 L10.4526406,5.88952944 L10.1383673,5.59257838 L4.84810094,0.593902128 C4.01003894,-0.197967376 2.64818818,-0.197967376 1.81012618,0.593902128 L1.70536843,0.692885816 C0.867306423,1.48475532 0.867306423,2.77154327 1.70536843,3.56341277 L7.67656021,9.30446668 L1.60061068,15.0455206 C0.762548673,15.8373901 0.762548673,17.124178 1.60061068,17.9160475 L1.70536843,18.0150312 C2.54343043,18.8069007 3.90528119,18.8069007 4.74334319,18.0150312 L10.0336096,13.016355 L10.4002617,12.6699121 L10.6097772,12.4719447 C10.714535,12.372961 10.8192927,12.372961 10.9240505,12.4719447 L11.0811871,12.6204202 L11.552597,13.0658468 L16.8428634,18.0645231 C17.6809254,18.8563926 19.0427761,18.8563926 19.8808381,18.0645231 L19.9855959,17.9655394 C20.8760368,17.124178 20.8760368,15.8373901 20.0379748,15.0455206 Z" id="svg_4"></path>
                            </g>
                            <path d="M59.524225,17.2726536 C58.7909207,18.1635068 57.5338277,18.5594415 56.4862502,18.5594415 C55.0196417,18.5594415 53.9720642,17.6190965 53.9720642,16.5302759 L53.9720642,2.02916561 C53.9720642,0.890853193 54.9672628,0 56.1195981,0 L56.2243558,0 C57.4290699,0 58.3718897,0.940345037 58.3718897,2.02916561 L58.3718897,12.5709284 L68.323876,1.28678794 C69.0571802,0.395934752 70.3142733,0 71.3618508,0 C72.8284593,0 73.8760368,0.940345037 73.8760368,2.02916561 L73.8760368,16.5302759 C73.8760368,17.6685883 72.8808381,18.5594415 71.7285029,18.5594415 L71.6237451,18.5594415 C70.419031,18.5594415 69.4762112,17.6190965 69.4762112,16.5302759 L69.4762112,5.98851313 L59.524225,17.2726536 Z" id="svg_5"></path>
                            <path d="M51.8481009,1.97967376 C51.8481009,0.890853193 50.9576601,0 49.9100826,0 C48.8625051,0 47.9720642,0.890853193 47.9720642,1.97967376 L47.9720642,6.73089079 C47.9720642,6.82987448 48.0768219,6.92885816 48.1815797,6.92885816 L51.6385854,6.92885816 C51.7433432,6.92885816 51.8481009,6.82987448 51.8481009,6.73089079 L51.8481009,1.97967376 Z" id="svg_6"></path>
                            <path d="M51.8481009,8.19796738 C51.8481009,8.09898369 51.7433432,8 51.6385854,8 L48.1815797,8 C48.0768219,8 47.9720642,8.09898369 47.9720642,8.19796738 L47.9720642,16.0176787 C47.9720642,17.0570075 48.8625051,17.9478607 49.9100826,17.9478607 C50.9576601,17.9478607 51.8481009,17.1064993 51.8481009,16.0176787 L51.8481009,8.19796738 Z" id="svg_7"></path>
                            <path d="M45.2985597,8.46310533 L32.9371452,8.46310533 C31.7848099,8.46310533 30.8419902,9.20548299 30.8419902,10.2448117 C30.8419902,11.2841404 31.7848099,11.9770263 32.9371452,11.9770263 L39.1702313,11.9770263 L37.4941073,14.6495858 C37.3893496,14.8475532 37.232213,14.8970451 37.0226975,14.8970451 L30.9467479,14.8970451 C30.6848536,14.8970451 30.5800958,14.8475532 30.4753381,14.6495858 L27.3849844,9.30446668 C27.2802267,9.15599115 27.2802267,9.00751561 27.3849844,8.80954824 L30.4753381,3.61290461 C30.5800958,3.41493724 30.7372324,3.36544539 30.9467479,3.36544539 L37.0226975,3.36544539 C37.2845918,3.36544539 37.3893496,3.41493724 37.5464862,3.61290461 L39.4321257,6.58241526 C39.5368835,6.73089079 39.5892623,6.78038263 39.7987778,6.78038263 L44.0938456,6.78038263 L39.9559145,0.197967376 C39.8511567,0.049491844 39.746399,0 39.5368835,0 L28.4325619,0 C28.1706675,0 28.0659098,0.0989836881 27.961152,0.296951064 L23.0899166,8.76005639 C22.93278,9.00751561 22.93278,9.15599115 23.0899166,9.40345037 L28.2230464,18.1140149 C28.3278042,18.3119823 28.4849408,18.3614741 28.7468352,18.3614741 L39.3797468,18.3614741 C39.6416412,18.3614741 39.7987778,18.3119823 39.9035356,18.0645231 L45.2985597,8.46310533 Z" id="svg_8"></path>
                        </g>
                    </g>
                </g>
                <polygon id="Line" fill="#158AB9" fill-rule="nonzero" points="513 52.5 660 52.5 661 52.5 661 54.5 660 54.5 513 54.5 513 60.5 499 53.5 513 46.5"></polygon>
                <polygon id="Line" fill="#979797" fill-rule="nonzero" points="384.325579 224.298726 730.659938 99.0595971 731.600341 98.7195348 732.280465 100.600341 731.340062 100.940403 385.005703 226.179531 387.046077 231.821949 371.5 230 382.285205 218.656308"></polygon>
                <polygon id="Line" fill="#979797" fill-rule="nonzero" points="479.002518 275.035901 660.002564 275.500003 661.002561 275.502567 660.997433 277.502561 659.997436 277.499997 478.99739 277.035894 478.982005 283.035874 465 276 479.017903 269.03592"></polygon>
                <polygon id="Line" fill="#979797" fill-rule="nonzero" points="265.698623 270.037285 97.3082264 108.722114 96.5861119 108.030341 97.9696591 106.586112 98.6917736 107.277886 267.082171 268.593056 271.232812 264.260369 276.5 279 261.547982 274.369972"></polygon>
                <polygon id="Line" fill="#158AB9" fill-rule="nonzero" points="342.996962 54.9565171 195.996894 54.4999952 194.996899 54.4968896 195.00311 52.4968992 196.003106 52.5000048 343.003173 52.9565268 343.021807 46.9565557 357 54 342.978328 60.9564882"></polygon>
                <polygon id="Line" fill="#158AB9" fill-rule="nonzero" points="732 114 732 230 732 231 730 231 730 230 730 114 724 114 731 100 738 114"></polygon>
                <g id="Group-6" transform="translate(277.000000, 229.000000)" stroke-dasharray="7">
                    <g id="Rectangle">
                        <g id="path-1-Clipped">
                            <mask id="mask-2" fill="white">
                                <use xlink:href="#path-1"></use>
                            </mask>
                            <g id="path-1"></g>
                            <path d="M0,0 L188,0 L188,94 L0,94 L0,0 Z" id="path-1" stroke="#979797" stroke-width="8" fill="#EFEDED" fill-rule="nonzero" mask="url(#mask-2)"></path>
                        </g>
                    </g>
                </g>
                <g id="Group-7" transform="translate(8.000000, 358.000000)">
                    <polygon id="Line" fill="#979797" fill-rule="nonzero" points="39 13.5 1 13.5 -1.34448008e-13 13.5 -1.34003919e-13 11.5 1 11.5 39 11.5 39 5.5 53 12.5 39 19.5"></polygon>
                    <g id="File-system-link" transform="translate(61.000000, 0.000000)" fill="#000000" font-family="Avenir-Book, Avenir" font-size="15" font-weight="normal">
                        <text>
                            <tspan x="0.45" y="15">File system link</tspan>
                        </text>
                    </g>
                    <polygon id="Line" fill="#158AB9" fill-rule="nonzero" points="39 40.5 1 40.5 -1.27675648e-13 40.5 -1.27675648e-13 38.5 1 38.5 39 38.5 39 32.5 53 39.5 39 46.5"></polygon>
                    <g id="Network-link" transform="translate(61.000000, 30.000000)" fill="#000000" font-family="Avenir-Book, Avenir" font-size="15" font-weight="normal">
                        <text>
                            <tspan x="0.0675" y="15">Network link</tspan>
                        </text>
                    </g>
                </g>
            </g>
            <g id="wordpress-logo" transform="translate(702.000000, 21.000000)" fill="#FFFFFF" fill-rule="nonzero">
                <path d="M4.548,31.999 C4.548,42.899 10.848,52.299 20.048,56.705 L6.925,20.827 C5.402,24.2 4.5,28 4.5,31.999 L4.548,31.999 Z M50.531,30.614 C50.531,27.22 49.312,24.872 48.267,23.044 C46.876,20.781 45.572,18.867 45.572,16.605 C45.572,14.082 47.484,11.733 50.181,11.733 C50.302,11.733 50.381,11.733 50.581,11.755 C45.653,7.3 39.1,4.5 32,4.548 C22.409,4.548 13.973,9.469 9.064,16.948 C9.709,16.948 10.364,16.948 10.864,16.981 C13.735,16.981 18.18,16.632 18.18,16.632 C19.659,16.546 19.88,18.732 18.38,18.932 C18.38,18.932 16.893,19.106 15.238,19.193 L25.235,48.928 L31.243,30.911 L26.967,19.193 C25.488,19.106 24.088,18.932 24.088,18.932 C22.608,18.845 22.782,16.583 24.262,16.67 C24.262,16.67 28.762,16.97 31.462,17.019 C34.332,17.019 38.779,16.67 38.779,16.67 C40.258,16.584 40.479,18.77 38.979,18.932 C38.979,18.932 37.49,19.106 35.837,19.193 L45.757,48.701 L48.496,39.553 C49.628,35.7 50.5,33 50.5,30.614 L50.531,30.614 Z M32.481,34.4 L24.244,58.334 C26.704,59.034 29.344,59.434 32.044,59.434 C35.241,59.434 38.306,58.882 41.16,57.878 C41.088,57.76 41.019,57.635 40.964,57.499 L32.481,34.4 Z M56.088,18.8 C56.207,19.7 56.288,20.6 56.288,21.623 C56.288,24.408 55.767,27.539 54.2,31.455 L45.815,55.697 C53.976,50.939 59.465,42.097 59.465,31.969 C59.451,27.2 58.2,22.7 56.1,18.83 L56.088,18.8 Z M32,0 C14.355,0 0,14.355 0,32 C0,49.6 14.4,64 32,64 C49.6,64 64,49.645 64,31.999 C64,14.4 49.6,0 32,0 Z M32,62.533 C15.165,62.533 1.467,48.835 1.467,31.999 C1.467,15.2 15.2,1.5 32,1.5 C48.8,1.5 62.534,15.2 62.5001258,32.032 C62.533,48.8 48.8,62.5 32,62.533 Z" id="Shape"></path>
            </g>
            <g id="-Wordpress-files" transform="translate(357.000000, 247.000000)" fill="#616C75" fill-rule="nonzero">
                <g id="path-3-link">
                    <path d="M29.5625,7.776786 C29.937502,8.151788 30.258927,8.660711 30.526786,9.303571 C30.794644,9.946432 30.928571,10.535712 30.928571,11.071429 L30.928571,34.214286 C30.928571,34.750003 30.741073,35.205355 30.366071,35.580357 C29.99107,35.955359 29.535717,36.142857 29,36.142857 L2,36.142857 C1.464283,36.142857 1.0089304,35.955359 0.6339286,35.580357 C0.2589267,35.205355 0.0714286,34.750003 0.0714286,34.214286 L0.0714286,2.071429 C0.0714286,1.535712 0.2589267,1.080359 0.6339286,0.705357 C1.0089304,0.330355 1.464283,0.142857 2,0.142857 L20,0.142857 C20.535717,0.142857 21.124997,0.276784 21.767857,0.544643 C22.410718,0.812501 22.919641,1.133927 23.294643,1.508929 L29.5625,7.776786 Z M20.642857,2.875 L20.642857,10.428571 L28.196429,10.428571 C28.062499,10.040177 27.915179,9.765626 27.754464,9.604911 L21.466518,3.316964 C21.305803,3.156249 21.031252,3.008929 20.642857,2.875 Z M28.357143,33.571429 L28.357143,13 L20,13 C19.464283,13 19.00893,12.812502 18.633929,12.4375 C18.258927,12.062498 18.071429,11.607146 18.071429,11.071429 L18.071429,2.714286 L2.6428571,2.714286 L2.6428571,33.571429 L28.357143,33.571429 Z" id="path-3"></path>
                </g>
            </g>
            <text id="Project-files" fill="#000000" font-family="Avenir-Medium, Avenir" font-size="14" font-weight="400" letter-spacing="0.5833333">
                <tspan x="329.262334" y="307">Project files</tspan>
            </text>
        </g>
    </g>
</svg>