<?xml version="1.0" encoding="UTF-8"?>
<svg width="802px" height="405px" viewBox="0 0 802 405" version="1.1" xmlns="http://www.w3.org/2000/svg" xmlns:xlink="http://www.w3.org/1999/xlink">
    <!-- Generator: Sketch 52.2 (67145) - http://www.bohemiancoding.com/sketch -->
    <title>docker-containers-2</title>
    <desc>Created with Sketch.</desc>
    <defs>
        <rect id="path-1" x="0" y="0" width="188" height="94"></rect>
        <mask id="mask-2" maskContentUnits="userSpaceOnUse" maskUnits="objectBoundingBox" x="0" y="0" width="188" height="94" fill="white">
            <use xlink:href="#path-1"></use>
        </mask>
        <path d="M108.5625,23.7767857 C108.937502,24.1517876 109.258927,24.6607111 109.526786,25.3035714 C109.794644,25.9464318 109.928571,26.5357116 109.928571,27.0714286 L109.928571,50.2142857 C109.928571,50.7500027 109.741073,51.2053553 109.366071,51.5803571 C108.99107,51.955359 108.535717,52.1428571 108,52.1428571 L81,52.1428571 C80.464283,52.1428571 80.0089304,51.955359 79.6339286,51.5803571 C79.2589267,51.2053553 79.0714286,50.7500027 79.0714286,50.2142857 L79.0714286,18.0714286 C79.0714286,17.5357116 79.2589267,17.080359 79.6339286,16.7053571 C80.0089304,16.3303553 80.464283,16.1428571 81,16.1428571 L99,16.1428571 C99.535717,16.1428571 100.124997,16.2767844 100.767857,16.5446429 C101.410718,16.8125013 101.919641,17.1339267 102.294643,17.5089286 L108.5625,23.7767857 Z M99.6428571,18.875 L99.6428571,26.4285714 L107.196429,26.4285714 C107.062499,26.0401766 106.915179,25.7656258 106.754464,25.6049107 L100.466518,19.3169643 C100.305803,19.1562492 100.031252,19.0089292 99.6428571,18.875 Z M107.357143,49.5714286 L107.357143,29 L99,29 C98.464283,29 98.0089304,28.8125019 97.6339286,28.4375 C97.2589267,28.0624981 97.0714286,27.6071455 97.0714286,27.0714286 L97.0714286,18.7142857 L81.6428571,18.7142857 L81.6428571,49.5714286 L107.357143,49.5714286 Z M31.041,57.256 L32.841,57.256 L35.649,67.444 L35.685,67.444 L38.691,57.256 L40.671,57.256 L43.677,67.444 L43.713,67.444 L46.521,57.256 L48.321,57.256 L44.613,70 L42.795,70 L39.699,59.596 L39.663,59.596 L36.585,70 L34.767,70 L31.041,57.256 Z M50.877,65.734 C50.877,66.1660022 50.9429993,66.5649982 51.075,66.931 C51.2070007,67.2970018 51.3929988,67.6089987 51.633,67.867 C51.8730012,68.1250013 52.1669983,68.3289992 52.515,68.479 C52.8630017,68.6290008 53.2529978,68.704 53.685,68.704 C54.1170022,68.704 54.5069983,68.6290008 54.855,68.479 C55.2030017,68.3289992 55.4969988,68.1250013 55.737,67.867 C55.9770012,67.6089987 56.1629993,67.2970018 56.295,66.931 C56.4270007,66.5649982 56.493,66.1660022 56.493,65.734 C56.493,65.3019978 56.4270007,64.9030018 56.295,64.537 C56.1629993,64.1709982 55.9770012,63.8590013 55.737,63.601 C55.4969988,63.3429987 55.2030017,63.1390007 54.855,62.989 C54.5069983,62.8389993 54.1170022,62.764 53.685,62.764 C53.2529978,62.764 52.8630017,62.8389993 52.515,62.989 C52.1669983,63.1390007 51.8730012,63.3429987 51.633,63.601 C51.3929988,63.8590013 51.2070007,64.1709982 51.075,64.537 C50.9429993,64.9030018 50.877,65.3019978 50.877,65.734 Z M49.149,65.734 C49.149,65.1099969 49.2659988,64.5280027 49.5,63.988 C49.7340012,63.4479973 50.054998,62.974002 50.463,62.566 C50.871002,62.157998 51.3509972,61.8370012 51.903,61.603 C52.4550028,61.3689988 53.0489968,61.252 53.685,61.252 C54.3210032,61.252 54.9149972,61.3689988 55.467,61.603 C56.0190028,61.8370012 56.498998,62.157998 56.907,62.566 C57.315002,62.974002 57.6359988,63.4479973 57.87,63.988 C58.1040012,64.5280027 58.221,65.1099969 58.221,65.734 C58.221,66.3580031 58.1040012,66.9429973 57.87,67.489 C57.6359988,68.0350027 57.315002,68.508998 56.907,68.911 C56.498998,69.313002 56.0190028,69.6309988 55.467,69.865 C54.9149972,70.0990012 54.3210032,70.216 53.685,70.216 C53.0489968,70.216 52.4550028,70.0990012 51.903,69.865 C51.3509972,69.6309988 50.871002,69.313002 50.463,68.911 C50.054998,68.508998 49.7340012,68.0350027 49.5,67.489 C49.2659988,66.9429973 49.149,66.3580031 49.149,65.734 Z M60.255,61.468 L61.875,61.468 L61.875,62.782 L61.911,62.782 C62.0190005,62.5539989 62.1629991,62.3470009 62.343,62.161 C62.5230009,61.9749991 62.7239989,61.8160007 62.946,61.684 C63.1680011,61.5519993 63.4109987,61.4470004 63.675,61.369 C63.9390013,61.2909996 64.2029987,61.252 64.467,61.252 C64.7310013,61.252 64.9709989,61.2879996 65.187,61.36 L65.115,63.106 C64.9829993,63.0699998 64.8510007,63.0400001 64.719,63.016 C64.5869993,62.9919999 64.4550007,62.98 64.323,62.98 C63.530996,62.98 62.9250021,63.2019978 62.505,63.646 C62.0849979,64.0900022 61.875,64.7799953 61.875,65.716 L61.875,70 L60.255,70 L60.255,61.468 Z M75.465,70 L73.845,70 L73.845,68.776 L73.809,68.776 C73.4969984,69.2320023 73.0680027,69.5859987 72.522,69.838 C71.9759973,70.0900013 71.4150029,70.216 70.839,70.216 C70.1789967,70.216 69.5820027,70.1020011 69.048,69.874 C68.5139973,69.6459989 68.0580019,69.328002 67.68,68.92 C67.3019981,68.511998 67.011001,68.0380027 66.807,67.498 C66.602999,66.9579973 66.501,66.3700032 66.501,65.734 C66.501,65.0979968 66.602999,64.5070027 66.807,63.961 C67.011001,63.4149973 67.3019981,62.941002 67.68,62.539 C68.0580019,62.136998 68.5139973,61.8220011 69.048,61.594 C69.5820027,61.3659989 70.1789967,61.252 70.839,61.252 C71.4510031,61.252 72.0269973,61.3809987 72.567,61.639 C73.1070027,61.8970013 73.5209986,62.2479978 73.809,62.692 L73.845,62.692 L73.845,56.392 L75.465,56.392 L75.465,70 Z M71.037,68.704 C71.4690022,68.704 71.8589983,68.6290008 72.207,68.479 C72.5550017,68.3289992 72.8489988,68.1250013 73.089,67.867 C73.3290012,67.6089987 73.5149993,67.2970018 73.647,66.931 C73.7790007,66.5649982 73.845,66.1660022 73.845,65.734 C73.845,65.3019978 73.7790007,64.9030018 73.647,64.537 C73.5149993,64.1709982 73.3290012,63.8590013 73.089,63.601 C72.8489988,63.3429987 72.5550017,63.1390007 72.207,62.989 C71.8589983,62.8389993 71.4690022,62.764 71.037,62.764 C70.6049978,62.764 70.2150017,62.8389993 69.867,62.989 C69.5189983,63.1390007 69.2250012,63.3429987 68.985,63.601 C68.7449988,63.8590013 68.5590007,64.1709982 68.427,64.537 C68.2949993,64.9030018 68.229,65.3019978 68.229,65.734 C68.229,66.1660022 68.2949993,66.5649982 68.427,66.931 C68.5590007,67.2970018 68.7449988,67.6089987 68.985,67.867 C69.2250012,68.1250013 69.5189983,68.3289992 69.867,68.479 C70.2150017,68.6290008 70.6049978,68.704 71.037,68.704 Z M77.913,61.468 L79.533,61.468 L79.533,62.692 L79.569,62.692 C79.8810016,62.2359977 80.3099973,61.8820013 80.856,61.63 C81.4020027,61.3779987 81.9629971,61.252 82.539,61.252 C83.1990033,61.252 83.7959973,61.3659989 84.33,61.594 C84.8640027,61.8220011 85.3199981,62.139998 85.698,62.548 C86.0760019,62.956002 86.366999,63.4329973 86.571,63.979 C86.775001,64.5250027 86.877,65.1099969 86.877,65.734 C86.877,66.3700032 86.775001,66.9609973 86.571,67.507 C86.366999,68.0530027 86.0760019,68.526998 85.698,68.929 C85.3199981,69.331002 84.8640027,69.6459989 84.33,69.874 C83.7959973,70.1020011 83.1990033,70.216 82.539,70.216 C81.9269969,70.216 81.3510027,70.0870013 80.811,69.829 C80.2709973,69.5709987 79.8570014,69.2200022 79.569,68.776 L79.533,68.776 L79.533,75.076 L77.913,75.076 L77.913,61.468 Z M82.341,62.764 C81.9089978,62.764 81.5190017,62.8389993 81.171,62.989 C80.8229983,63.1390007 80.5290012,63.3429987 80.289,63.601 C80.0489988,63.8590013 79.8630007,64.1709982 79.731,64.537 C79.5989993,64.9030018 79.533,65.3019978 79.533,65.734 C79.533,66.1660022 79.5989993,66.5649982 79.731,66.931 C79.8630007,67.2970018 80.0489988,67.6089987 80.289,67.867 C80.5290012,68.1250013 80.8229983,68.3289992 81.171,68.479 C81.5190017,68.6290008 81.9089978,68.704 82.341,68.704 C82.7730022,68.704 83.1629983,68.6290008 83.511,68.479 C83.8590017,68.3289992 84.1529988,68.1250013 84.393,67.867 C84.6330012,67.6089987 84.8189993,67.2970018 84.951,66.931 C85.0830007,66.5649982 85.149,66.1660022 85.149,65.734 C85.149,65.3019978 85.0830007,64.9030018 84.951,64.537 C84.8189993,64.1709982 84.6330012,63.8590013 84.393,63.601 C84.1529988,63.3429987 83.8590017,63.1390007 83.511,62.989 C83.1629983,62.8389993 82.7730022,62.764 82.341,62.764 Z M88.911,61.468 L90.531,61.468 L90.531,62.782 L90.567,62.782 C90.6750005,62.5539989 90.8189991,62.3470009 90.999,62.161 C91.1790009,61.9749991 91.3799989,61.8160007 91.602,61.684 C91.8240011,61.5519993 92.0669987,61.4470004 92.331,61.369 C92.5950013,61.2909996 92.8589987,61.252 93.123,61.252 C93.3870013,61.252 93.6269989,61.2879996 93.843,61.36 L93.771,63.106 C93.6389993,63.0699998 93.5070007,63.0400001 93.375,63.016 C93.2429993,62.9919999 93.1110007,62.98 92.979,62.98 C92.186996,62.98 91.5810021,63.2019978 91.161,63.646 C90.7409979,64.0900022 90.531,64.7799953 90.531,65.716 L90.531,70 L88.911,70 L88.911,61.468 Z M96.795,66.328 C96.795,66.7000019 96.8759992,67.0389985 97.038,67.345 C97.2000008,67.6510015 97.4129987,67.9119989 97.677,68.128 C97.9410013,68.3440011 98.2469983,68.5119994 98.595,68.632 C98.9430017,68.7520006 99.3029981,68.812 99.675,68.812 C100.179003,68.812 100.616998,68.6950012 100.989,68.461 C101.361002,68.2269988 101.702998,67.9180019 102.015,67.534 L103.239,68.47 C102.338996,69.6340058 101.079008,70.216 99.459,70.216 C98.7869966,70.216 98.1780027,70.1020011 97.632,69.874 C97.0859973,69.6459989 96.6240019,69.331002 96.246,68.929 C95.8679981,68.526998 95.577001,68.0530027 95.373,67.507 C95.168999,66.9609973 95.067,66.3700032 95.067,65.734 C95.067,65.0979968 95.1779989,64.5070027 95.4,63.961 C95.6220011,63.4149973 95.9279981,62.941002 96.318,62.539 C96.708002,62.136998 97.1729973,61.8220011 97.713,61.594 C98.2530027,61.3659989 98.8409968,61.252 99.477,61.252 C100.233004,61.252 100.871997,61.3839987 101.394,61.648 C101.916003,61.9120013 102.344998,62.2569979 102.681,62.683 C103.017002,63.1090021 103.259999,63.5889973 103.41,64.123 C103.560001,64.6570027 103.635,65.1999972 103.635,65.752 L103.635,66.328 L96.795,66.328 Z M101.907,65.032 C101.895,64.6719982 101.838001,64.3420015 101.736,64.042 C101.633999,63.7419985 101.481001,63.4810011 101.277,63.259 C101.072999,63.0369989 100.818002,62.8630006 100.512,62.737 C100.205998,62.6109994 99.849002,62.548 99.441,62.548 C99.044998,62.548 98.6820017,62.6229993 98.352,62.773 C98.0219984,62.9230008 97.7430011,63.1179988 97.515,63.358 C97.2869989,63.5980012 97.1100006,63.8649985 96.984,64.159 C96.8579994,64.4530015 96.795,64.7439986 96.795,65.032 L101.907,65.032 Z M110.115,63.61 C109.922999,63.3699988 109.686001,63.1690008 109.404,63.007 C109.121999,62.8449992 108.777002,62.764 108.369,62.764 C107.984998,62.764 107.652001,62.8449992 107.37,63.007 C107.087999,63.1690008 106.947,63.4059984 106.947,63.718 C106.947,63.9700013 107.027999,64.1739992 107.19,64.33 C107.352001,64.4860008 107.543999,64.6119995 107.766,64.708 C107.988001,64.8040005 108.224999,64.8759998 108.477,64.924 C108.729001,64.9720002 108.944999,65.0139998 109.125,65.05 C109.473002,65.1340004 109.799998,65.2359994 110.106,65.356 C110.412002,65.4760006 110.675999,65.631999 110.898,65.824 C111.120001,66.016001 111.293999,66.2499986 111.42,66.526 C111.546001,66.8020014 111.609,67.137998 111.609,67.534 C111.609,68.0140024 111.507001,68.4249983 111.303,68.767 C111.098999,69.1090017 110.835002,69.3879989 110.511,69.604 C110.186998,69.8200011 109.818002,69.9759995 109.404,70.072 C108.989998,70.1680005 108.573002,70.216 108.153,70.216 C107.444996,70.216 106.824003,70.1080011 106.29,69.892 C105.755997,69.6759989 105.279002,69.2800029 104.859,68.704 L106.083,67.696 C106.347001,67.9600013 106.640998,68.193999 106.965,68.398 C107.289002,68.602001 107.684998,68.704 108.153,68.704 C108.357001,68.704 108.563999,68.6830002 108.774,68.641 C108.984001,68.5989998 109.169999,68.5330005 109.332,68.443 C109.494001,68.3529995 109.625999,68.2390007 109.728,68.101 C109.830001,67.9629993 109.881,67.8040009 109.881,67.624 C109.881,67.3839988 109.806001,67.1860008 109.656,67.03 C109.505999,66.8739992 109.326001,66.7510004 109.116,66.661 C108.905999,66.5709995 108.684001,66.4990003 108.45,66.445 C108.215999,66.3909997 108.009001,66.3460002 107.829,66.31 C107.480998,66.2259996 107.151002,66.1300005 106.839,66.022 C106.526998,65.9139995 106.251001,65.7700009 106.011,65.59 C105.770999,65.4099991 105.579001,65.1820014 105.435,64.906 C105.290999,64.6299986 105.219,64.288002 105.219,63.88 C105.219,63.4359978 105.311999,63.0490016 105.498,62.719 C105.684001,62.3889984 105.929998,62.1160011 106.236,61.9 C106.542002,61.6839989 106.889998,61.5220005 107.28,61.414 C107.670002,61.3059995 108.062998,61.252 108.459,61.252 C109.035003,61.252 109.586997,61.3599989 110.115,61.576 C110.643003,61.7920011 111.062998,62.1519975 111.375,62.656 L110.115,63.61 Z M118.107,63.61 C117.914999,63.3699988 117.678001,63.1690008 117.396,63.007 C117.113999,62.8449992 116.769002,62.764 116.361,62.764 C115.976998,62.764 115.644001,62.8449992 115.362,63.007 C115.079999,63.1690008 114.939,63.4059984 114.939,63.718 C114.939,63.9700013 115.019999,64.1739992 115.182,64.33 C115.344001,64.4860008 115.535999,64.6119995 115.758,64.708 C115.980001,64.8040005 116.216999,64.8759998 116.469,64.924 C116.721001,64.9720002 116.936999,65.0139998 117.117,65.05 C117.465002,65.1340004 117.791998,65.2359994 118.098,65.356 C118.404002,65.4760006 118.667999,65.631999 118.89,65.824 C119.112001,66.016001 119.285999,66.2499986 119.412,66.526 C119.538001,66.8020014 119.601,67.137998 119.601,67.534 C119.601,68.0140024 119.499001,68.4249983 119.295,68.767 C119.090999,69.1090017 118.827002,69.3879989 118.503,69.604 C118.178998,69.8200011 117.810002,69.9759995 117.396,70.072 C116.981998,70.1680005 116.565002,70.216 116.145,70.216 C115.436996,70.216 114.816003,70.1080011 114.282,69.892 C113.747997,69.6759989 113.271002,69.2800029 112.851,68.704 L114.075,67.696 C114.339001,67.9600013 114.632998,68.193999 114.957,68.398 C115.281002,68.602001 115.676998,68.704 116.145,68.704 C116.349001,68.704 116.555999,68.6830002 116.766,68.641 C116.976001,68.5989998 117.161999,68.5330005 117.324,68.443 C117.486001,68.3529995 117.617999,68.2390007 117.72,68.101 C117.822001,67.9629993 117.873,67.8040009 117.873,67.624 C117.873,67.3839988 117.798001,67.1860008 117.648,67.03 C117.497999,66.8739992 117.318001,66.7510004 117.108,66.661 C116.897999,66.5709995 116.676001,66.4990003 116.442,66.445 C116.207999,66.3909997 116.001001,66.3460002 115.821,66.31 C115.472998,66.2259996 115.143002,66.1300005 114.831,66.022 C114.518998,65.9139995 114.243001,65.7700009 114.003,65.59 C113.762999,65.4099991 113.571001,65.1820014 113.427,64.906 C113.282999,64.6299986 113.211,64.288002 113.211,63.88 C113.211,63.4359978 113.303999,63.0490016 113.49,62.719 C113.676001,62.3889984 113.921998,62.1160011 114.228,61.9 C114.534002,61.6839989 114.881998,61.5220005 115.272,61.414 C115.662002,61.3059995 116.054998,61.252 116.451,61.252 C117.027003,61.252 117.578997,61.3599989 118.107,61.576 C118.635003,61.7920011 119.054998,62.1519975 119.367,62.656 L118.107,63.61 Z M127.197,62.872 L125.361,62.872 L125.361,61.468 L127.197,61.468 L127.197,59.56 C127.197,58.4199943 127.415998,57.5710028 127.854,57.013 C128.292002,56.4549972 129.044995,56.176 130.113,56.176 C130.293001,56.176 130.481999,56.1819999 130.68,56.194 C130.878001,56.2060001 131.090999,56.2419997 131.319,56.302 L131.139,57.742 C130.982999,57.6819997 130.833001,57.6400001 130.689,57.616 C130.544999,57.5919999 130.389001,57.58 130.221,57.58 C129.920999,57.58 129.681001,57.6249996 129.501,57.715 C129.320999,57.8050005 129.180001,57.9339992 129.078,58.102 C128.975999,58.2700008 128.91,58.4709988 128.88,58.705 C128.85,58.9390012 128.835,59.2059985 128.835,59.506 L128.835,61.468 L130.761,61.468 L130.761,62.872 L128.817,62.872 L128.817,70 L127.197,70 L127.197,62.872 Z M132.687,61.468 L134.307,61.468 L134.307,70 L132.687,70 L132.687,61.468 Z M132.309,58.408 C132.309,58.0839984 132.425999,57.8050012 132.66,57.571 C132.894001,57.3369988 133.172998,57.22 133.497,57.22 C133.821002,57.22 134.099999,57.3369988 134.334,57.571 C134.568001,57.8050012 134.685,58.0839984 134.685,58.408 C134.685,58.7320016 134.568001,59.0109988 134.334,59.245 C134.099999,59.4790012 133.821002,59.596 133.497,59.596 C133.172998,59.596 132.894001,59.4790012 132.66,59.245 C132.425999,59.0109988 132.309,58.7320016 132.309,58.408 Z M137.007,56.392 L138.627,56.392 L138.627,70 L137.007,70 L137.007,56.392 Z M142.425,66.328 C142.425,66.7000019 142.505999,67.0389985 142.668,67.345 C142.830001,67.6510015 143.042999,67.9119989 143.307,68.128 C143.571001,68.3440011 143.876998,68.5119994 144.225,68.632 C144.573002,68.7520006 144.932998,68.812 145.305,68.812 C145.809003,68.812 146.246998,68.6950012 146.619,68.461 C146.991002,68.2269988 147.332998,67.9180019 147.645,67.534 L148.869,68.47 C147.968996,69.6340058 146.709008,70.216 145.089,70.216 C144.416997,70.216 143.808003,70.1020011 143.262,69.874 C142.715997,69.6459989 142.254002,69.331002 141.876,68.929 C141.497998,68.526998 141.207001,68.0530027 141.003,67.507 C140.798999,66.9609973 140.697,66.3700032 140.697,65.734 C140.697,65.0979968 140.807999,64.5070027 141.03,63.961 C141.252001,63.4149973 141.557998,62.941002 141.948,62.539 C142.338002,62.136998 142.802997,61.8220011 143.343,61.594 C143.883003,61.3659989 144.470997,61.252 145.107,61.252 C145.863004,61.252 146.501997,61.3839987 147.024,61.648 C147.546003,61.9120013 147.974998,62.2569979 148.311,62.683 C148.647002,63.1090021 148.889999,63.5889973 149.04,64.123 C149.190001,64.6570027 149.265,65.1999972 149.265,65.752 L149.265,66.328 L142.425,66.328 Z M147.537,65.032 C147.525,64.6719982 147.468001,64.3420015 147.366,64.042 C147.263999,63.7419985 147.111001,63.4810011 146.907,63.259 C146.702999,63.0369989 146.448002,62.8630006 146.142,62.737 C145.835998,62.6109994 145.479002,62.548 145.071,62.548 C144.674998,62.548 144.312002,62.6229993 143.982,62.773 C143.651998,62.9230008 143.373001,63.1179988 143.145,63.358 C142.916999,63.5980012 142.740001,63.8649985 142.614,64.159 C142.487999,64.4530015 142.425,64.7439986 142.425,65.032 L147.537,65.032 Z M155.745,63.61 C155.552999,63.3699988 155.316001,63.1690008 155.034,63.007 C154.751999,62.8449992 154.407002,62.764 153.999,62.764 C153.614998,62.764 153.282001,62.8449992 153,63.007 C152.717999,63.1690008 152.577,63.4059984 152.577,63.718 C152.577,63.9700013 152.657999,64.1739992 152.82,64.33 C152.982001,64.4860008 153.173999,64.6119995 153.396,64.708 C153.618001,64.8040005 153.854999,64.8759998 154.107,64.924 C154.359001,64.9720002 154.574999,65.0139998 154.755,65.05 C155.103002,65.1340004 155.429998,65.2359994 155.736,65.356 C156.042002,65.4760006 156.305999,65.631999 156.528,65.824 C156.750001,66.016001 156.923999,66.2499986 157.05,66.526 C157.176001,66.8020014 157.239,67.137998 157.239,67.534 C157.239,68.0140024 157.137001,68.4249983 156.933,68.767 C156.728999,69.1090017 156.465002,69.3879989 156.141,69.604 C155.816998,69.8200011 155.448002,69.9759995 155.034,70.072 C154.619998,70.1680005 154.203002,70.216 153.783,70.216 C153.074996,70.216 152.454003,70.1080011 151.92,69.892 C151.385997,69.6759989 150.909002,69.2800029 150.489,68.704 L151.713,67.696 C151.977001,67.9600013 152.270998,68.193999 152.595,68.398 C152.919002,68.602001 153.314998,68.704 153.783,68.704 C153.987001,68.704 154.193999,68.6830002 154.404,68.641 C154.614001,68.5989998 154.799999,68.5330005 154.962,68.443 C155.124001,68.3529995 155.255999,68.2390007 155.358,68.101 C155.460001,67.9629993 155.511,67.8040009 155.511,67.624 C155.511,67.3839988 155.436001,67.1860008 155.286,67.03 C155.135999,66.8739992 154.956001,66.7510004 154.746,66.661 C154.535999,66.5709995 154.314001,66.4990003 154.08,66.445 C153.845999,66.3909997 153.639001,66.3460002 153.459,66.31 C153.110998,66.2259996 152.781002,66.1300005 152.469,66.022 C152.156998,65.9139995 151.881001,65.7700009 151.641,65.59 C151.400999,65.4099991 151.209001,65.1820014 151.065,64.906 C150.920999,64.6299986 150.849,64.288002 150.849,63.88 C150.849,63.4359978 150.941999,63.0490016 151.128,62.719 C151.314001,62.3889984 151.559998,62.1160011 151.866,61.9 C152.172002,61.6839989 152.519998,61.5220005 152.91,61.414 C153.300002,61.3059995 153.692998,61.252 154.089,61.252 C154.665003,61.252 155.216997,61.3599989 155.745,61.576 C156.273003,61.7920011 156.692998,62.1519975 157.005,62.656 L155.745,63.61 Z" id="path-3"></path>
    </defs>
    <g id="Page-1" stroke="none" stroke-width="1" fill="none" fill-rule="evenodd">
        <g id="docker-containers-2">
            <g id="Group-2" transform="translate(357.000000, 7.000000)">
                <rect id="Rectangle" fill="#158AB9" fill-rule="nonzero" x="0" y="0" width="142" height="93" rx="6"></rect>
                <g id="logo-mysql" transform="translate(23.000000, 19.000000)" fill="#FFFFFF">
                    <path d="M66.0245595,6 C65.6006407,6 65.3016551,6.06409971 65,6.15691075 L65,6.21967505 L65.0485852,6.21967505 C65.2504004,6.71845092 65.6006407,7.06498998 65.8483716,7.50166926 C66.049653,8.00178055 66.2247731,8.50055642 66.4244527,9 C66.4490123,8.96995326 66.4730379,8.9372357 66.4730379,8.9372357 C66.8254138,8.62608502 67,8.12597374 67,7.37480525 C66.8489055,7.1551302 66.8254138,6.93812597 66.6994127,6.71845092 C66.5499199,6.40663254 66.2247731,6.25038949 66.0245595,6" id="Fill-3"></path>
                    <path d="M23,59 L19.3084311,59 C19.1786227,52.7849546 18.8188029,46.9407786 18.2306797,41.4663362 L18.1982276,41.4663362 L12.5783207,59 L9.76751324,59 L4.18176642,41.4663362 L4.14874499,41.4663362 C3.73483836,46.7238228 3.47408288,52.5679988 3.36533987,59 L0,59 C0.217486014,51.1776642 0.761770385,43.8448988 1.63285311,37 L6.20746077,37 L11.5330214,53.1649112 L11.5660429,53.1649112 L16.9240556,37 L21.301104,37 C22.2598643,45.0165737 22.8257835,52.3516109 23,59" id="Fill-4"></path>
                    <path d="M39,43 C37.5493936,51.1360527 35.6361317,57.0485349 33.2607638,60.7368788 C31.4101417,63.5789596 29.3831391,65 27.1753601,65 C26.5868755,65 25.8615723,64.8165483 25,64.4524848 L25,62.4913128 C25.4208956,62.5549245 25.9143216,62.5890022 26.4824758,62.5890022 C27.5121865,62.5890022 28.3418894,62.294798 28.9737823,61.7075255 C29.729856,60.9918936 30.1078928,60.1876597 30.1078928,59.2965277 C30.1078928,58.6876726 29.8128262,57.4387247 29.2254406,55.5491158 L25.315397,43 L28.8155344,43 L31.621139,52.3855686 C32.251933,54.5165612 32.5145806,56.0040532 32.4096315,56.8520201 C33.9443071,52.6150252 35.0163272,47.9974958 35.6262412,43 L39,43" id="Fill-5"></path>
                    <polyline id="Fill-6" points="88 59 78 59 78 37 81.3650035 37 81.3650035 56.2937319 88 56.2937319 88 59"></polyline>
                    <path d="M62.0096358,54.6921007 C61.1260793,53.2767102 60.6834564,51.0053589 60.6834564,47.8735622 C60.6834564,42.4059508 62.3537104,39.6704635 65.6925291,39.6704635 C67.438243,39.6704635 68.7193718,40.3246261 69.5387311,41.6318303 C70.4211613,43.0477813 70.8637843,45.2995134 70.8637843,48.3875872 C70.8637843,53.8989215 69.1935302,56.6557098 65.8547116,56.6557098 C64.1095608,56.6557098 62.8278689,56.0021077 62.0096358,54.6921007 M75,59.5593623 L70.9904893,57.5912689 C71.347516,57.2997825 71.6865223,56.9853136 71.9934301,56.6215162 C73.6957828,54.629319 74.5478038,51.6808224 74.5478038,47.7771475 C74.5478038,40.5936904 71.714679,37 66.0489926,37 C63.2699287,37 61.1041171,37.9108949 59.5532474,39.7354873 C57.8503316,41.7299267 57,44.6672123 57,48.5490258 C57,52.3658154 57.7534727,55.165766 59.2615442,56.9443934 C60.6406582,58.5520527 62.7197472,59.3570035 65.4993743,59.3570035 C66.5372294,59.3570035 67.4894882,59.2297585 68.3550244,58.9752685 L73.5763984,62 L75,59.5593623" id="Fill-7"></path>
                    <path d="M56,52.7778337 C56,54.5953525 55.3053237,56.0875437 53.9205755,57.2549606 C52.5346763,58.4173981 50.6728058,59 48.341295,59 C46.1605755,59 44.0471942,58.3294269 42,56.9987928 L42.9576978,55.1580364 C44.7194245,56.004552 46.3136691,56.4272565 47.745036,56.4272565 C49.0877698,56.4272565 50.138705,56.1401051 50.8989928,55.5724417 C51.657554,55.0009054 52.1122302,54.2036315 52.1122302,53.192239 C52.1122302,51.9196992 51.1890647,50.8319543 49.4952518,49.9195986 C47.9315108,49.0946609 44.8063309,47.3723059 44.8063309,47.3723059 C43.1130935,46.184971 42.2641727,44.9107713 42.2641727,42.8116339 C42.2641727,41.075447 42.8972662,39.6723336 44.1617266,38.6045067 C45.4290647,37.53502 47.0641727,37 49.0664748,37 C51.1361151,37 53.0181295,37.531147 54.7130935,38.5890149 L53.8520863,40.4281116 C52.4017266,39.8372105 50.9715108,39.5406534 49.5614388,39.5406534 C48.4172662,39.5406534 47.5355396,39.8045671 46.9208633,40.3357141 C46.3027338,40.8624349 45.9205755,41.5402007 45.9205755,42.366245 C45.9205755,43.6354651 46.8638849,44.7364887 48.6054676,45.6665493 C50.188777,46.4920403 53.3905036,48.247592 53.3905036,48.247592 C55.1320863,49.4327138 56,50.6964012 56,52.7778337" id="Fill-8"></path>
                    <path d="M92.9231566,29.3913858 C90.8001404,29.3385066 89.1560213,29.5488982 87.7771375,30.1283187 C87.3792845,30.2863936 86.7433998,30.2863936 86.6889925,30.7864955 C86.9026543,30.996887 86.9281577,31.3389139 87.1151827,31.6297492 C87.4325583,32.1562906 87.9885324,32.8656589 88.4934997,33.235813 C89.0506072,33.6571586 89.6077148,34.0768166 90.192026,34.4452831 C91.2257638,35.0798329 92.3932527,35.4466118 93.3997868,36.0789115 C93.9852315,36.4473779 94.566709,36.9204776 95.1521537,37.3165088 C95.4428924,37.5274629 95.6270836,37.8700523 96,38 L96,37.9206813 C95.8129751,37.6844127 95.7608348,37.3418233 95.5760768,37.0774275 C95.3114082,36.8158444 95.0456061,36.5773257 94.7798041,36.3151801 C94.0101682,35.2885369 93.0540741,34.3940915 92.0220366,33.6571586 C91.17249,33.0760504 89.3147091,32.2862383 88.9712633,31.315287 C88.9712633,31.315287 88.943493,31.2871598 88.9174228,31.2612828 C89.5011673,31.2078411 90.192026,30.996887 90.7485668,30.8371244 C91.6491202,30.6008559 92.4714631,30.6542976 93.3997868,30.418029 C93.8248435,30.3117081 94.2493334,30.1795102 94.6755235,30.0501251 L94.6755235,29.8116063 C94.1954929,29.3385066 93.8520471,28.7056444 93.3482133,28.2584217 C91.9965332,27.1001432 90.5094016,25.9694293 88.9712633,25.0198546 C88.1477869,24.4933132 87.0868455,24.1524114 86.2112289,23.7035012 C85.89442,23.5454262 85.364516,23.4672326 85.1780578,23.2028368 C84.7002942,22.6234163 84.4339253,21.8611688 84.0899128,21.1754274 C83.3214104,19.7291262 82.5772779,18.123625 81.915323,16.5940673 C81.4381261,15.5679866 81.1462539,14.541906 80.5625094,13.5934564 C77.8291118,9.1167295 74.8593828,6.40639145 70.2971081,3.74668237 C69.3155106,3.19257631 68.1485885,2.95630774 66.9028891,2.66659746 C66.2386673,2.6390328 65.5761456,2.58784127 64.9130573,2.56196424 C64.4880006,2.37688719 64.062944,1.87622283 63.6922946,1.63939172 C62.1796597,0.692067247 58.2821736,-1.36121916 57.1673917,1.35024399 C56.4510296,3.06262859 58.2283331,4.74688599 58.8387145,5.61601682 C59.2892745,6.22075185 59.8735857,6.90649326 60.1903946,7.58998449 C60.376286,8.03776969 60.4295598,8.51255701 60.616018,8.9856567 C61.0399411,10.1439353 61.4372274,11.4344117 61.9954685,12.5144966 C62.2862072,13.0674776 62.6041496,13.6474607 62.9753657,14.1453123 C63.1895943,14.4367102 63.5596769,14.5666579 63.6395876,15.0420078 C63.2695049,15.5679866 63.2406011,16.3577987 63.0286395,17.016538 C62.0742456,19.9918344 62.444895,23.6776241 63.7982754,25.8625459 C64.2216318,26.5207226 65.2309996,27.969274 66.5838133,27.4151679 C67.7773723,26.9420682 67.512137,25.4412003 67.8567162,24.1254093 C67.9360601,23.8075718 67.8827864,23.5988679 68.0414742,23.3884764 L68.0414742,23.4419181 C68.4126903,24.1777259 68.7850399,24.8870942 69.1296192,25.6262773 C69.9530956,26.9150661 71.3841196,28.2584217 72.5788122,29.152867 C73.2135634,29.6282169 73.717964,30.4433435 74.51367,30.7336163 L74.51367,30.6542976 L74.4615297,30.6542976 C74.3017084,30.418029 74.0636767,30.3117081 73.8511484,30.1283187 C73.3739515,29.6540939 72.8446143,29.0746734 72.4716979,28.5486945 C71.3580495,27.0748287 70.3753185,25.4412003 69.5019688,23.7563803 C69.0763454,22.938441 68.705696,22.0439957 68.36055,21.2283066 C68.2018622,20.9138444 68.2018622,20.4384945 67.9360601,20.2809821 C67.5370736,20.8598401 66.9550294,21.3605045 66.6637239,22.0693102 C66.1593234,23.2028368 66.1066163,24.5979465 65.9195914,26.0464978 C65.8141774,26.0740625 65.8674511,26.0464978 65.8141774,26.0988145 C64.966331,25.8884229 64.6744588,25.0198546 64.355383,24.2846093 C63.5596769,22.4130247 63.4259258,19.4118513 64.1167845,17.2528066 C64.3015425,16.7009507 65.0995155,14.9632516 64.7798729,14.4367102 C64.6194848,13.9343582 64.0895809,13.6474607 63.7982754,13.250867 C63.4542629,12.7507652 63.0807798,12.1201531 62.8444483,11.566047 C62.2074301,10.0921812 61.8872207,8.45911531 61.1997624,6.98524945 C60.8812533,6.29950804 60.3230123,5.58845215 59.8735857,4.95784008 C59.3686184,4.24678418 58.8120776,3.74668237 58.4136578,2.90511621 C58.2821736,2.61484339 58.0962822,2.14061862 58.307677,1.82559385 C58.3598173,1.61463977 58.4674983,1.53532103 58.6800267,1.48187933 C59.0229057,1.1927316 60.0056366,1.56063552 60.3496491,1.71871045 C61.3318134,2.11249141 62.1541563,2.48320805 62.9753657,3.03506393 C63.3471486,3.29889717 63.7450016,3.79899898 64.2216318,3.93175942 L64.7798729,3.93175942 C65.6282859,4.11458629 66.5838133,3.98295094 67.380086,4.22090715 C68.7850399,4.6681298 70.0579429,5.32630654 71.1993617,6.03736244 C74.6729246,8.22284674 77.5378064,11.330341 79.4732309,15.0420078 C79.7923068,15.6467428 79.9260579,16.2002863 80.2173634,16.8308984 C80.774471,18.123625 81.464763,19.4399785 82.0207371,20.7023277 C82.5772779,21.939925 83.1088821,23.2028368 83.9057216,24.2311676 C84.3024412,24.7830235 85.89442,25.0727338 86.6107821,25.3624441 C87.1401193,25.5987126 87.9635957,25.8096667 88.4413594,26.0988145 C89.3430462,26.6512329 90.2430328,27.2840951 91.0931461,27.8905178 C91.5165025,28.2061051 92.843246,28.8637193 92.9231566,29.3913858" id="Fill-9"></path>
                    <path d="M90.8228706,59 L91.4282346,59 L91.4282346,56.5088496 L92.2204539,56.5088496 L92.2204539,56 L90,56 L90,56.5088496 L90.8228706,56.5088496 L90.8228706,59 Z M95.4294135,59 L96,59 L96,56 L95.1417625,56 L94.4432655,58.0448799 L93.6828765,56 L92.8558798,56 L92.8558798,59 L93.3958149,59 L93.3958149,56.7168142 L93.4264663,56.7168142 L94.2228117,59 L94.634247,59 L95.4294135,56.7168142 L95.4294135,59 Z" id="Fill-10"></path>
                </g>
            </g>
            <g id="Group" transform="translate(660.000000, 7.000000)">
                <rect id="Rectangle" fill="#158AB9" fill-rule="nonzero" x="0" y="0" width="142" height="93" rx="6"></rect>
                <g id="php-logo" transform="translate(24.000000, 22.000000)" fill="#FFFFFF">
                    <path d="M7.579,10.123 L21.783,10.123 C25.952,10.158 28.973,11.36 30.846,13.727 C32.719,16.094 33.337,19.327 32.701,23.426 C32.454,25.299 31.906,27.136 31.058,28.938 C30.245,30.74 29.115,32.365 27.666,33.814 C25.899,35.651 24.009,36.817 21.995,37.312 C19.981,37.807 17.896,38.054 15.741,38.054 L9.381,38.054 L7.367,48.124 L0,48.124 L7.579,10.123 M13.78,16.165 L10.6,32.065 C10.812,32.1 11.024,32.118 11.236,32.118 C11.483,32.118 11.731,32.118 11.978,32.118 C15.37,32.153 18.197,31.818 20.458,31.111 C22.719,30.369 24.239,27.79 25.016,23.373 C25.652,19.663 25.016,17.525 23.108,16.96 C21.235,16.395 18.886,16.13 16.059,16.165 C15.635,16.2 15.229,16.218 14.84,16.218 C14.487,16.218 14.116,16.218 13.727,16.218 L13.78,16.165" id="Shape" fill-rule="nonzero"></path>
                    <path d="M41.093,0 L48.407,0 L46.34,10.123 L52.912,10.123 C56.516,10.194 59.201,10.936 60.968,12.349 C62.77,13.762 63.3,16.448 62.558,20.405 L59.007,38.054 L51.587,38.054 L54.979,21.2 C55.332,19.433 55.226,18.179 54.661,17.437 C54.096,16.695 52.877,16.324 51.004,16.324 L45.121,16.271 L40.775,38.054 L33.461,38.054 L41.093,0" id="Path"></path>
                    <path d="M70.412,10.123 L84.616,10.123 C88.785,10.158 91.806,11.36 93.679,13.727 C95.552,16.094 96.17,19.327 95.534,23.426 C95.287,25.299 94.739,27.136 93.891,28.938 C93.078,30.74 91.948,32.365 90.499,33.814 C88.732,35.651 86.842,36.817 84.828,37.312 C82.814,37.807 80.729,38.054 78.574,38.054 L72.214,38.054 L70.2,48.124 L62.833,48.124 L70.412,10.123 M76.613,16.165 L73.433,32.065 C73.645,32.1 73.857,32.118 74.069,32.118 C74.316,32.118 74.564,32.118 74.811,32.118 C78.203,32.153 81.03,31.818 83.291,31.111 C85.552,30.369 87.072,27.79 87.849,23.373 C88.485,19.663 87.849,17.525 85.941,16.96 C84.068,16.395 81.719,16.13 78.892,16.165 C78.468,16.2 78.062,16.218 77.673,16.218 C77.32,16.218 76.949,16.218 76.56,16.218 L76.613,16.165" id="Shape" fill-rule="nonzero"></path>
                </g>
            </g>
            <g id="Group">
                <rect id="Rectangle" fill-opacity="0.86" fill="#1A9AC4" fill-rule="nonzero" x="0" y="0" width="196" height="108" rx="6"></rect>
                <text id="--PHP---WP-CLI---Mak" fill="#FFFFFF" font-family="Avenir-Book, Avenir" font-size="18" font-weight="normal">
                    <tspan x="98" y="31">- PHP</tspan>
                    <tspan x="98" y="56">- WP-CLI</tspan>
                    <tspan x="98" y="81">- </tspan>
                    <tspan x="108.998" y="81" font-family="Avenir-BookOblique, Avenir" font-style="italic">Makefile</tspan>
                </text>
                <g id="toolbox" transform="translate(17.000000, 19.000000)" fill="#FFFFFF">
                    <path d="M9.14168322,15.0879249 C9.26234335,15.0269919 9.37957954,14.9610992 9.49311785,14.8953482 C9.55077724,14.9739943 9.61103883,15.0492395 9.68198315,15.1213673 L16.3286996,22 C16.7446415,21.4952476 17.3569814,21.1772621 18.0206807,21.1772621 C18.235568,21.1772621 18.4494967,21.2091457 18.6554818,21.2726294 L19.4842156,21.527698 L20,19.7322986 L12.6126138,12.0883184 C12.4953777,11.9684362 12.3693762,11.8676841 12.2333767,11.7815276 L12.2507704,11.7024564 C12.268301,11.6297618 12.2910361,11.5752055 12.3124016,11.5124303 C12.3293844,11.465526 12.3473259,11.4163544 12.3641717,11.3647739 C12.3856742,11.3147521 12.4070396,11.2616128 12.4285421,11.2062063 C12.4652469,11.1139565 12.5042799,11.0139129 12.5544066,10.9123106 L12.6931452,10.6208239 L12.851195,10.3320296 C12.9178936,10.1993939 12.9932206,10.0841879 13.0790933,9.95240251 C13.1251113,9.88268376 13.1712662,9.81013092 13.2182428,9.73658615 C13.2597411,9.67919572 13.3032938,9.62067165 13.3461617,9.56002201 C13.4538109,9.41307417 13.5542012,9.27363668 13.6632199,9.15304592 L13.7393686,9.0661809 C13.8835856,8.90336212 14.0278025,8.73501686 14.1957132,8.59161164 C14.2491269,8.54229838 14.2893926,8.50403809 14.3318496,8.46521099 C14.3885503,8.41051295 14.4460727,8.35468127 14.50743,8.30465949 L14.8311991,8.0612107 C14.8421557,8.05469228 14.8495515,8.04760704 14.8568102,8.04023839 C14.9863727,7.9332513 15.1418202,7.84256025 15.3079504,7.74676782 C15.3745121,7.70921606 15.4390194,7.67194771 15.5043484,7.63170355 C15.643361,7.53945375 15.7867561,7.47979605 15.9393275,7.41659572 C16.016298,7.3831534 16.0914881,7.35141153 16.1684585,7.31726068 C16.212696,7.29912247 16.2580292,7.27800846 16.3025406,7.25760297 C16.3508868,7.23705578 16.3984113,7.21225745 16.4467575,7.19978743 L16.8028487,7.09634295 C16.8735191,7.07820474 16.955694,7.05368981 17.0385537,7.02889148 C17.1542834,6.9938904 17.2663151,6.96073149 17.3416421,6.95024534 L18.2948709,6.80598988 C18.4336095,6.78515928 18.556461,6.71841634 18.6510991,6.62177369 C18.7543655,6.51365295 18.8236664,6.36741363 18.8333904,6.20657872 C18.8537972,5.89992961 18.6654797,5.61963758 18.3808806,5.53319768 L17.4414846,5.25673168 C17.2780935,5.20600137 17.1045676,5.17964428 16.9373416,5.15427913 C16.8628364,5.14237593 16.7866877,5.13103955 16.7061563,5.11715248 L16.2948709,5.05125977 C16.1658563,5.02957894 16.0449223,5.02646143 15.9372732,5.02419416 C15.8949531,5.0226354 15.8522221,5.02178518 15.8077107,5.0195179 C15.7000616,5.01795915 15.6219955,5.0135663 15.5414641,5.00974027 C15.3019243,4.99939582 15.031021,4.98848456 14.743135,5.02731166 L14.5608437,5.04247407 C14.2852838,5.06613877 13.9697322,5.09249585 13.6528111,5.171142 L13.1446963,5.27742057 C12.988427,5.31738132 12.857632,5.35918422 12.726563,5.40141224 L12.566185,5.45214255 C12.1987263,5.5575709 11.8512634,5.70848647 11.5147572,5.85529261 L11.4686023,5.87527298 C11.1800315,5.99898124 10.9180305,6.1435201 10.6647949,6.2830993 L10.4547011,6.39887209 C10.4400466,6.40638244 10.428816,6.41502643 10.4141615,6.4229619 C10.3329453,6.47525096 10.2498117,6.52683149 10.1691433,6.57770351 C9.94987331,6.71501542 9.72156406,6.85728701 9.5106485,7.01939726 L9.15921386,7.27885869 C9.15181812,7.28537711 9.11730466,7.31130908 9.1086763,7.31867773 L8.76093953,7.60591329 C8.66726015,7.6807334 8.58083955,7.75668716 8.49797987,7.83164898 C7.8716702,7.93948631 7.26987605,8.24018382 6.78737246,8.74082676 L6.04273095,9.51000023 C5.69992467,9.86511237 5.37834692,10.3630629 5.11346983,10.9209546 C3.94617544,10.6889839 2.36225433,12.4724801 0,14.9158953 L5.28233925,20.3786141 C7.09333699,18.5040017 9.36739026,16.2956746 9.14168322,15.0879249 Z" id="Path"></path>
                    <path d="M51.027892,14.3583618 L54.2307287,15 L57.4906411,10.7370648 C58.0859169,9.96354949 59.0759781,9.6094198 60,9.83576792 L60,8 L55.1853316,8 L55.1853316,11.9890785 L50,11.9890785 L51.027892,14.3583618 Z" id="Path"></path>
                    <polygon id="Path" points="20.083934 16 21 13 17 13"></polygon>
                    <path d="M60.3524587,34.177113 L60.3524587,21.2132563 C60.261337,21.3379115 60.1710475,21.4638132 60.073962,21.5856982 C58.6641415,23.3636959 56.7933035,24.6433501 54.6963949,25.3247981 L55.2884779,25.3247981 L55.2884779,34.177113 L43.4139478,34.177113 L41.7157833,34.177113 L48.0755784,25.517321 C48.1909715,25.369951 48.2972108,25.2175947 48.3956833,25.0617758 C51.9488747,25.9511209 55.8582312,24.7666201 58.2763542,21.7190792 C60.0406755,19.4945391 60.7267927,16.6224848 60.1570394,13.8375507 C60.0937951,13.5218962 59.85122,13.2721704 59.538466,13.1968233 C59.2239089,13.1228613 58.8954824,13.2361589 58.694238,13.4878238 L54.5948712,18.6563026 L49.2652922,17.6259586 L47.040092,12.67992 L51.1412618,7.51102572 C51.3419515,7.25894535 51.3769023,6.91268109 51.2323835,6.62542026 C51.0874487,6.33705139 50.7891188,6.15921007 50.467627,6.16821294 C47.6214956,6.25200889 44.9782729,7.57543088 43.2133968,9.79983245 C40.7980478,12.8458499 40.5368877,16.9150089 42.2123064,20.1644912 C42.0855405,20.2978722 41.9609936,20.4392865 41.8411623,20.5897037 L33.6112227,30.3670982 L35.6030015,32.3564556 C36.1190804,32.8718353 36.4799612,33.4963575 36.672884,34.1769745 L35.7849675,34.1769745 C35.6225573,33.7305707 35.3659742,33.3114524 35.006203,32.9531382 L23.6772935,21.6374993 L23.3828469,22.6239369 L24.150516,22.8520558 C24.7281749,23.0228333 25.20431,23.4082947 25.4911284,23.936971 C25.7776694,24.4655087 25.8413297,25.0749338 25.6699044,25.651256 C25.5773958,25.9601238 25.4185916,26.24503 25.2088869,26.4856144 C25.2681091,27.0142907 25.2230337,27.5497537 25.0670034,28.0647179 L24.0496858,31.4863628 L26.7439477,34.1753125 L25.8807187,34.1753125 L23.9950405,34.1753125 L22.102705,34.1753125 L24.1032215,27.4493371 C24.2750629,26.8767545 24.2605001,26.2923989 24.0996155,25.759983 C24.3814409,25.6163526 24.6077888,25.3616406 24.7055678,25.0343516 C24.8930816,24.4002725 24.5313687,23.7326751 23.8957359,23.5449998 L22.1175452,23.0163236 L26.9510172,6.7696047 L27.1031641,6.81475756 L28.35529,4.3939549 L28.846404,0.61842796 L26.7596201,0 L25.135518,3.44048164 L24.8746353,6.15477789 L25.02914,6.20076178 L20.1955293,22.4484502 L18.3448019,21.8995521 C17.7113882,21.7111843 17.0416368,22.0726842 16.8534296,22.7067633 C16.7627239,23.0132764 16.8000325,23.3267148 16.9344266,23.5915377 C16.4892202,23.9523451 16.1424862,24.4476415 15.9666227,25.0380913 L13.2519728,34.177113 L11.4427148,34.177113 L10.7122156,34.177113 L10.7122156,25.3256291 L14.0759515,25.3256291 L14.6771883,23.3016453 C14.8286417,22.7945759 14.9322458,22.6551007 15.2343204,22.2322428 L9.80404985,16.6760865 C9.06037476,17.6988126 8.32405043,18.7599048 7.17871866,19.8952361 L5.6475413,21.4228155 L5.6475413,34.177113 L4,34.177113 L4,51.8832665 C4,57.469894 8.53736119,62 14.1323998,62 L51.8698193,62 C57.4655514,62 62,57.4705865 62,51.8832665 L62,34.177113 L60.3524587,34.177113 Z M20.5874774,27.8885387 C20.7871962,27.2147084 21.4960592,26.8321557 22.1708036,27.0314654 C22.8426354,27.2313291 23.2276488,27.9390932 23.0272366,28.6123695 L21.373038,34.1772516 L18.7169168,34.1772516 L20.5874774,27.8885387 Z M16.4840885,26.671489 C16.683946,25.9987669 17.3929477,25.6152446 18.0671373,25.8145543 C18.7410495,26.0142795 19.1250921,26.7219051 18.9245411,27.3947658 L16.9073814,34.1772516 L14.251815,34.1772516 L16.4840885,26.671489 Z" id="Shape" fill-rule="nonzero"></path>
                    <path d="M25,18.639863 L31.1790547,25 L34.4911462,25 L40,18.2540533 C39.2434309,16.2398587 39.0724571,14.0710052 39.4472164,12 L26.9159639,12 L25,18.639863 Z" id="Path"></path>
                </g>
            </g>
            <g id="Group-3" transform="translate(660.000000, 230.000000)">
                <rect id="Rectangle" fill="#158AB9" fill-rule="nonzero" x="0" y="0" width="142" height="93" rx="6"></rect>
                <g id="nginx" transform="translate(23.000000, 41.000000)" fill="#FFFFFF">
                    <g id="svg_1">
                        <path d="M15.323876,17.2726536 C16.0571802,18.1635068 17.3142733,18.5594415 18.3618508,18.5594415 C19.8284593,18.5594415 20.8760368,17.6190965 20.8760368,16.5302759 L20.8760368,2.02916561 C20.8760368,0.890853193 19.8808381,2.19787939e-16 18.7285029,2.19787939e-16 L18.6237451,2.19787939e-16 C17.419031,2.19787939e-16 16.4762112,0.940345037 16.4762112,2.02916561 L16.4762112,12.5709284 L6.52422495,1.28678794 C5.7909207,0.395934752 4.53382769,0 3.48625019,0 C2.01964168,0 0.972064174,0.940345037 0.972064174,2.02916561 L0.972064174,16.5302759 C0.972064174,17.6685883 1.9672628,18.5594415 3.11959806,18.5594415 L3.22435581,18.5594415 C4.42906994,18.5594415 5.37188969,17.6190965 5.37188969,16.5302759 L5.37188969,5.98851313 L15.323876,17.2726536 Z" id="svg_2"></path>
                        <g id="svg_3" transform="translate(76.000000, 0.000000)">
                            <path d="M20.0379748,15.0455206 L13.9620252,9.30446668 L20.0379748,3.56341277 C20.8760368,2.77154327 20.8760368,1.48475532 20.0379748,0.692885816 L19.933217,0.593902128 C19.095155,-0.197967376 17.7333043,-0.197967376 16.8952422,0.593902128 L11.6049758,5.59257838 L11.2383237,5.93902128 L11.0288082,6.13698866 C10.9240505,6.23597235 10.8192927,6.23597235 10.714535,6.13698866 L10.4526406,5.88952944 L10.1383673,5.59257838 L4.84810094,0.593902128 C4.01003894,-0.197967376 2.64818818,-0.197967376 1.81012618,0.593902128 L1.70536843,0.692885816 C0.867306423,1.48475532 0.867306423,2.77154327 1.70536843,3.56341277 L7.67656021,9.30446668 L1.60061068,15.0455206 C0.762548673,15.8373901 0.762548673,17.124178 1.60061068,17.9160475 L1.70536843,18.0150312 C2.54343043,18.8069007 3.90528119,18.8069007 4.74334319,18.0150312 L10.0336096,13.016355 L10.4002617,12.6699121 L10.6097772,12.4719447 C10.714535,12.372961 10.8192927,12.372961 10.9240505,12.4719447 L11.0811871,12.6204202 L11.552597,13.0658468 L16.8428634,18.0645231 C17.6809254,18.8563926 19.0427761,18.8563926 19.8808381,18.0645231 L19.9855959,17.9655394 C20.8760368,17.124178 20.8760368,15.8373901 20.0379748,15.0455206 Z" id="svg_4"></path>
                        </g>
                        <path d="M59.524225,17.2726536 C58.7909207,18.1635068 57.5338277,18.5594415 56.4862502,18.5594415 C55.0196417,18.5594415 53.9720642,17.6190965 53.9720642,16.5302759 L53.9720642,2.02916561 C53.9720642,0.890853193 54.9672628,2.19787939e-16 56.1195981,2.19787939e-16 L56.2243558,2.19787939e-16 C57.4290699,2.19787939e-16 58.3718897,0.940345037 58.3718897,2.02916561 L58.3718897,12.5709284 L68.323876,1.28678794 C69.0571802,0.395934752 70.3142733,0 71.3618508,0 C72.8284593,0 73.8760368,0.940345037 73.8760368,2.02916561 L73.8760368,16.5302759 C73.8760368,17.6685883 72.8808381,18.5594415 71.7285029,18.5594415 L71.6237451,18.5594415 C70.419031,18.5594415 69.4762112,17.6190965 69.4762112,16.5302759 L69.4762112,5.98851313 L59.524225,17.2726536 Z" id="svg_5"></path>
                        <path d="M51.8481009,1.97967376 C51.8481009,0.890853193 50.9576601,0 49.9100826,0 C48.8625051,0 47.9720642,0.890853193 47.9720642,1.97967376 L47.9720642,6.73089079 C47.9720642,6.82987448 48.0768219,6.92885816 48.1815797,6.92885816 L51.6385854,6.92885816 C51.7433432,6.92885816 51.8481009,6.82987448 51.8481009,6.73089079 L51.8481009,1.97967376 Z" id="svg_6"></path>
                        <path d="M51.8481009,8.19796738 C51.8481009,8.09898369 51.7433432,8 51.6385854,8 L48.1815797,8 C48.0768219,8 47.9720642,8.09898369 47.9720642,8.19796738 L47.9720642,16.0176787 C47.9720642,17.0570075 48.8625051,17.9478607 49.9100826,17.9478607 C50.9576601,17.9478607 51.8481009,17.1064993 51.8481009,16.0176787 L51.8481009,8.19796738 Z" id="svg_7"></path>
                        <path d="M45.2985597,8.46310533 L32.9371452,8.46310533 C31.7848099,8.46310533 30.8419902,9.20548299 30.8419902,10.2448117 C30.8419902,11.2841404 31.7848099,11.9770263 32.9371452,11.9770263 L39.1702313,11.9770263 L37.4941073,14.6495858 C37.3893496,14.8475532 37.232213,14.8970451 37.0226975,14.8970451 L30.9467479,14.8970451 C30.6848536,14.8970451 30.5800958,14.8475532 30.4753381,14.6495858 L27.3849844,9.30446668 C27.2802267,9.15599115 27.2802267,9.00751561 27.3849844,8.80954824 L30.4753381,3.61290461 C30.5800958,3.41493724 30.7372324,3.36544539 30.9467479,3.36544539 L37.0226975,3.36544539 C37.2845918,3.36544539 37.3893496,3.41493724 37.5464862,3.61290461 L39.4321257,6.58241526 C39.5368835,6.73089079 39.5892623,6.78038263 39.7987778,6.78038263 L44.0938456,6.78038263 L39.9559145,0.197967376 C39.8511567,0.049491844 39.746399,0 39.5368835,0 L28.4325619,0 C28.1706675,0 28.0659098,0.0989836881 27.961152,0.296951064 L23.0899166,8.76005639 C22.93278,9.00751561 22.93278,9.15599115 23.0899166,9.40345037 L28.2230464,18.1140149 C28.3278042,18.3119823 28.4849408,18.3614741 28.7468352,18.3614741 L39.3797468,18.3614741 C39.6416412,18.3614741 39.7987778,18.3119823 39.9035356,18.0645231 L45.2985597,8.46310533 Z" id="svg_8"></path>
                    </g>
                </g>
            </g>
            <path id="Line" d="M513,52.5 L660,52.5 L661,52.5 L661,54.5 L660,54.5 L513,54.5 L513,60.5 L499,53.5 L513,46.5 L513,52.5 Z" fill="#158AB9" fill-rule="nonzero"></path>
            <path id="Line" d="M384.325579,224.298726 L730.659938,99.0595971 L731.600341,98.7195348 L732.280465,100.600341 L731.340062,100.940403 L385.005703,226.179531 L387.046077,231.821949 L371.5,230 L382.285205,218.656308 L384.325579,224.298726 Z" fill="#979797" fill-rule="nonzero"></path>
            <path id="Line" d="M479.002518,275.035901 L660.002564,275.500003 L661.002561,275.502567 L660.997433,277.502561 L659.997436,277.499997 L478.99739,277.035894 L478.982005,283.035874 L465,276 L479.017903,269.03592 L479.002518,275.035901 Z" fill="#979797" fill-rule="nonzero"></path>
            <path id="Line" d="M265.698623,270.037285 L97.3082264,108.722114 L96.5861119,108.030341 L97.9696591,106.586112 L98.6917736,107.277886 L267.082171,268.593056 L271.232812,264.260369 L276.5,279 L261.547982,274.369972 L265.698623,270.037285 Z" fill="#979797" fill-rule="nonzero"></path>
            <path id="Line" d="M342.996962,54.9565171 L195.996894,54.4999952 L194.996899,54.4968896 L195.00311,52.4968992 L196.003106,52.5000048 L343.003173,52.9565268 L343.021807,46.9565557 L357,54 L342.978328,60.9564882 L342.996962,54.9565171 Z" fill="#158AB9" fill-rule="nonzero"></path>
            <path id="Line" d="M732,114 L732,230 L732,231 L730,231 L730,230 L730,114 L724,114 L731,100 L738,114 L732,114 Z" fill="#158AB9" fill-rule="nonzero"></path>
            <g id="Group-6" transform="translate(277.000000, 229.000000)">
                <use id="Rectangle" stroke="#979797" mask="url(#mask-2)" stroke-width="8" fill="#EFEDED" fill-rule="nonzero" stroke-dasharray="7" xlink:href="#path-1"></use>
                <g id="-Wordpress-files">
                    <use fill="#FFFFFF" xlink:href="#path-3"></use>
                    <use fill="#616C75" xlink:href="#path-3"></use>
                </g>
            </g>
            <g id="Group-7" transform="translate(8.000000, 358.000000)">
                <path id="Line" d="M39,13.5 L1,13.5 L-1.34448008e-13,13.5 L-1.34003919e-13,11.5 L1,11.5 L39,11.5 L39,5.5 L53,12.5 L39,19.5 L39,13.5 Z" fill="#979797" fill-rule="nonzero"></path>
                <text id="File-system-link" fill="#000000" font-family="Avenir-Book, Avenir" font-size="15" font-weight="normal">
                    <tspan x="61.45" y="15">File system link</tspan>
                </text>
                <path id="Line" d="M39,40.5 L1,40.5 L-1.27675648e-13,40.5 L-1.27675648e-13,38.5 L1,38.5 L39,38.5 L39,32.5 L53,39.5 L39,46.5 L39,40.5 Z" fill="#158AB9" fill-rule="nonzero"></path>
                <text id="Network-link" fill="#000000" font-family="Avenir-Book, Avenir" font-size="15" font-weight="normal">
                    <tspan x="61.0675" y="45">Network link</tspan>
                </text>
            </g>
        </g>
    </g>
</svg>