<?xml version="1.0" encoding="UTF-8"?>
<svg width="445px" height="404px" viewBox="0 0 445 404" version="1.1" xmlns="http://www.w3.org/2000/svg" xmlns:xlink="http://www.w3.org/1999/xlink">
    <!-- Generator: Sketch 52.2 (67145) - http://www.bohemiancoding.com/sketch -->
    <title>docker-containers-1</title>
    <desc>Created with Sketch.</desc>
    <defs>
        <rect id="path-1" x="0" y="0" width="188" height="94"></rect>
        <mask id="mask-2" maskContentUnits="userSpaceOnUse" maskUnits="objectBoundingBox" x="0" y="0" width="188" height="94" fill="white">
            <use xlink:href="#path-1"></use>
        </mask>
        <path d="M111.5625,249.776786 C111.937502,250.151788 112.258927,250.660711 112.526786,251.303571 C112.794644,251.946432 112.928571,252.535712 112.928571,253.071429 L112.928571,276.214286 C112.928571,276.750003 112.741073,277.205355 112.366071,277.580357 C111.99107,277.955359 111.535717,278.142857 111,278.142857 L84,278.142857 C83.464283,278.142857 83.0089304,277.955359 82.6339286,277.580357 C82.2589267,277.205355 82.0714286,276.750003 82.0714286,276.214286 L82.0714286,244.071429 C82.0714286,243.535712 82.2589267,243.080359 82.6339286,242.705357 C83.0089304,242.330355 83.464283,242.142857 84,242.142857 L102,242.142857 C102.535717,242.142857 103.124997,242.276784 103.767857,242.544643 C104.410718,242.812501 104.919641,243.133927 105.294643,243.508929 L111.5625,249.776786 Z M102.642857,244.875 L102.642857,252.428571 L110.196429,252.428571 C110.062499,252.040177 109.915179,251.765626 109.754464,251.604911 L103.466518,245.316964 C103.305803,245.156249 103.031252,245.008929 102.642857,244.875 Z M110.357143,275.571429 L110.357143,255 L102,255 C101.464283,255 101.00893,254.812502 100.633929,254.4375 C100.258927,254.062498 100.071429,253.607146 100.071429,253.071429 L100.071429,244.714286 L84.6428571,244.714286 L84.6428571,275.571429 L110.357143,275.571429 Z M34.041,283.256 L35.841,283.256 L38.649,293.444 L38.685,293.444 L41.691,283.256 L43.671,283.256 L46.677,293.444 L46.713,293.444 L49.521,283.256 L51.321,283.256 L47.613,296 L45.795,296 L42.699,285.596 L42.663,285.596 L39.585,296 L37.767,296 L34.041,283.256 Z M53.877,291.734 C53.877,292.166002 53.9429993,292.564998 54.075,292.931 C54.2070007,293.297002 54.3929988,293.608999 54.633,293.867 C54.8730012,294.125001 55.1669983,294.328999 55.515,294.479 C55.8630017,294.629001 56.2529978,294.704 56.685,294.704 C57.1170022,294.704 57.5069983,294.629001 57.855,294.479 C58.2030017,294.328999 58.4969988,294.125001 58.737,293.867 C58.9770012,293.608999 59.1629993,293.297002 59.295,292.931 C59.4270007,292.564998 59.493,292.166002 59.493,291.734 C59.493,291.301998 59.4270007,290.903002 59.295,290.537 C59.1629993,290.170998 58.9770012,289.859001 58.737,289.601 C58.4969988,289.342999 58.2030017,289.139001 57.855,288.989 C57.5069983,288.838999 57.1170022,288.764 56.685,288.764 C56.2529978,288.764 55.8630017,288.838999 55.515,288.989 C55.1669983,289.139001 54.8730012,289.342999 54.633,289.601 C54.3929988,289.859001 54.2070007,290.170998 54.075,290.537 C53.9429993,290.903002 53.877,291.301998 53.877,291.734 Z M52.149,291.734 C52.149,291.109997 52.2659988,290.528003 52.5,289.988 C52.7340012,289.447997 53.054998,288.974002 53.463,288.566 C53.871002,288.157998 54.3509972,287.837001 54.903,287.603 C55.4550028,287.368999 56.0489968,287.252 56.685,287.252 C57.3210032,287.252 57.9149972,287.368999 58.467,287.603 C59.0190028,287.837001 59.498998,288.157998 59.907,288.566 C60.315002,288.974002 60.6359988,289.447997 60.87,289.988 C61.1040012,290.528003 61.221,291.109997 61.221,291.734 C61.221,292.358003 61.1040012,292.942997 60.87,293.489 C60.6359988,294.035003 60.315002,294.508998 59.907,294.911 C59.498998,295.313002 59.0190028,295.630999 58.467,295.865 C57.9149972,296.099001 57.3210032,296.216 56.685,296.216 C56.0489968,296.216 55.4550028,296.099001 54.903,295.865 C54.3509972,295.630999 53.871002,295.313002 53.463,294.911 C53.054998,294.508998 52.7340012,294.035003 52.5,293.489 C52.2659988,292.942997 52.149,292.358003 52.149,291.734 Z M63.255,287.468 L64.875,287.468 L64.875,288.782 L64.911,288.782 C65.0190005,288.553999 65.1629991,288.347001 65.343,288.161 C65.5230009,287.974999 65.7239989,287.816001 65.946,287.684 C66.1680011,287.551999 66.4109987,287.447 66.675,287.369 C66.9390013,287.291 67.2029987,287.252 67.467,287.252 C67.7310013,287.252 67.9709989,287.288 68.187,287.36 L68.115,289.106 C67.9829993,289.07 67.8510007,289.04 67.719,289.016 C67.5869993,288.992 67.4550007,288.98 67.323,288.98 C66.530996,288.98 65.9250021,289.201998 65.505,289.646 C65.0849979,290.090002 64.875,290.779995 64.875,291.716 L64.875,296 L63.255,296 L63.255,287.468 Z M78.465,296 L76.845,296 L76.845,294.776 L76.809,294.776 C76.4969984,295.232002 76.0680027,295.585999 75.522,295.838 C74.9759973,296.090001 74.4150029,296.216 73.839,296.216 C73.1789967,296.216 72.5820027,296.102001 72.048,295.874 C71.5139973,295.645999 71.0580019,295.328002 70.68,294.92 C70.3019981,294.511998 70.011001,294.038003 69.807,293.498 C69.602999,292.957997 69.501,292.370003 69.501,291.734 C69.501,291.097997 69.602999,290.507003 69.807,289.961 C70.011001,289.414997 70.3019981,288.941002 70.68,288.539 C71.0580019,288.136998 71.5139973,287.822001 72.048,287.594 C72.5820027,287.365999 73.1789967,287.252 73.839,287.252 C74.4510031,287.252 75.0269973,287.380999 75.567,287.639 C76.1070027,287.897001 76.5209986,288.247998 76.809,288.692 L76.845,288.692 L76.845,282.392 L78.465,282.392 L78.465,296 Z M74.037,294.704 C74.4690022,294.704 74.8589983,294.629001 75.207,294.479 C75.5550017,294.328999 75.8489988,294.125001 76.089,293.867 C76.3290012,293.608999 76.5149993,293.297002 76.647,292.931 C76.7790007,292.564998 76.845,292.166002 76.845,291.734 C76.845,291.301998 76.7790007,290.903002 76.647,290.537 C76.5149993,290.170998 76.3290012,289.859001 76.089,289.601 C75.8489988,289.342999 75.5550017,289.139001 75.207,288.989 C74.8589983,288.838999 74.4690022,288.764 74.037,288.764 C73.6049978,288.764 73.2150017,288.838999 72.867,288.989 C72.5189983,289.139001 72.2250012,289.342999 71.985,289.601 C71.7449988,289.859001 71.5590007,290.170998 71.427,290.537 C71.2949993,290.903002 71.229,291.301998 71.229,291.734 C71.229,292.166002 71.2949993,292.564998 71.427,292.931 C71.5590007,293.297002 71.7449988,293.608999 71.985,293.867 C72.2250012,294.125001 72.5189983,294.328999 72.867,294.479 C73.2150017,294.629001 73.6049978,294.704 74.037,294.704 Z M80.913,287.468 L82.533,287.468 L82.533,288.692 L82.569,288.692 C82.8810016,288.235998 83.3099973,287.882001 83.856,287.63 C84.4020027,287.377999 84.9629971,287.252 85.539,287.252 C86.1990033,287.252 86.7959973,287.365999 87.33,287.594 C87.8640027,287.822001 88.3199981,288.139998 88.698,288.548 C89.0760019,288.956002 89.366999,289.432997 89.571,289.979 C89.775001,290.525003 89.877,291.109997 89.877,291.734 C89.877,292.370003 89.775001,292.960997 89.571,293.507 C89.366999,294.053003 89.0760019,294.526998 88.698,294.929 C88.3199981,295.331002 87.8640027,295.645999 87.33,295.874 C86.7959973,296.102001 86.1990033,296.216 85.539,296.216 C84.9269969,296.216 84.3510027,296.087001 83.811,295.829 C83.2709973,295.570999 82.8570014,295.220002 82.569,294.776 L82.533,294.776 L82.533,301.076 L80.913,301.076 L80.913,287.468 Z M85.341,288.764 C84.9089978,288.764 84.5190017,288.838999 84.171,288.989 C83.8229983,289.139001 83.5290012,289.342999 83.289,289.601 C83.0489988,289.859001 82.8630007,290.170998 82.731,290.537 C82.5989993,290.903002 82.533,291.301998 82.533,291.734 C82.533,292.166002 82.5989993,292.564998 82.731,292.931 C82.8630007,293.297002 83.0489988,293.608999 83.289,293.867 C83.5290012,294.125001 83.8229983,294.328999 84.171,294.479 C84.5190017,294.629001 84.9089978,294.704 85.341,294.704 C85.7730022,294.704 86.1629983,294.629001 86.511,294.479 C86.8590017,294.328999 87.1529988,294.125001 87.393,293.867 C87.6330012,293.608999 87.8189993,293.297002 87.951,292.931 C88.0830007,292.564998 88.149,292.166002 88.149,291.734 C88.149,291.301998 88.0830007,290.903002 87.951,290.537 C87.8189993,290.170998 87.6330012,289.859001 87.393,289.601 C87.1529988,289.342999 86.8590017,289.139001 86.511,288.989 C86.1629983,288.838999 85.7730022,288.764 85.341,288.764 Z M91.911,287.468 L93.531,287.468 L93.531,288.782 L93.567,288.782 C93.6750005,288.553999 93.8189991,288.347001 93.999,288.161 C94.1790009,287.974999 94.3799989,287.816001 94.602,287.684 C94.8240011,287.551999 95.0669987,287.447 95.331,287.369 C95.5950013,287.291 95.8589987,287.252 96.123,287.252 C96.3870013,287.252 96.6269989,287.288 96.843,287.36 L96.771,289.106 C96.6389993,289.07 96.5070007,289.04 96.375,289.016 C96.2429993,288.992 96.1110007,288.98 95.979,288.98 C95.186996,288.98 94.5810021,289.201998 94.161,289.646 C93.7409979,290.090002 93.531,290.779995 93.531,291.716 L93.531,296 L91.911,296 L91.911,287.468 Z M99.795,292.328 C99.795,292.700002 99.8759992,293.038998 100.038,293.345 C100.200001,293.651002 100.412999,293.911999 100.677,294.128 C100.941001,294.344001 101.246998,294.511999 101.595,294.632 C101.943002,294.752001 102.302998,294.812 102.675,294.812 C103.179003,294.812 103.616998,294.695001 103.989,294.461 C104.361002,294.226999 104.702998,293.918002 105.015,293.534 L106.239,294.47 C105.338996,295.634006 104.079008,296.216 102.459,296.216 C101.786997,296.216 101.178003,296.102001 100.632,295.874 C100.085997,295.645999 99.6240019,295.331002 99.246,294.929 C98.8679981,294.526998 98.577001,294.053003 98.373,293.507 C98.168999,292.960997 98.067,292.370003 98.067,291.734 C98.067,291.097997 98.1779989,290.507003 98.4,289.961 C98.6220011,289.414997 98.9279981,288.941002 99.318,288.539 C99.708002,288.136998 100.172997,287.822001 100.713,287.594 C101.253003,287.365999 101.840997,287.252 102.477,287.252 C103.233004,287.252 103.871997,287.383999 104.394,287.648 C104.916003,287.912001 105.344998,288.256998 105.681,288.683 C106.017002,289.109002 106.259999,289.588997 106.41,290.123 C106.560001,290.657003 106.635,291.199997 106.635,291.752 L106.635,292.328 L99.795,292.328 Z M104.907,291.032 C104.895,290.671998 104.838001,290.342001 104.736,290.042 C104.633999,289.741999 104.481001,289.481001 104.277,289.259 C104.072999,289.036999 103.818002,288.863001 103.512,288.737 C103.205998,288.610999 102.849002,288.548 102.441,288.548 C102.044998,288.548 101.682002,288.622999 101.352,288.773 C101.021998,288.923001 100.743001,289.117999 100.515,289.358 C100.286999,289.598001 100.110001,289.864999 99.984,290.159 C99.8579994,290.453001 99.795,290.743999 99.795,291.032 L104.907,291.032 Z M113.115,289.61 C112.922999,289.369999 112.686001,289.169001 112.404,289.007 C112.121999,288.844999 111.777002,288.764 111.369,288.764 C110.984998,288.764 110.652001,288.844999 110.37,289.007 C110.087999,289.169001 109.947,289.405998 109.947,289.718 C109.947,289.970001 110.027999,290.173999 110.19,290.33 C110.352001,290.486001 110.543999,290.612 110.766,290.708 C110.988001,290.804 111.224999,290.876 111.477,290.924 C111.729001,290.972 111.944999,291.014 112.125,291.05 C112.473002,291.134 112.799998,291.235999 113.106,291.356 C113.412002,291.476001 113.675999,291.631999 113.898,291.824 C114.120001,292.016001 114.293999,292.249999 114.42,292.526 C114.546001,292.802001 114.609,293.137998 114.609,293.534 C114.609,294.014002 114.507001,294.424998 114.303,294.767 C114.098999,295.109002 113.835002,295.387999 113.511,295.604 C113.186998,295.820001 112.818002,295.976 112.404,296.072 C111.989998,296.168 111.573002,296.216 111.153,296.216 C110.444996,296.216 109.824003,296.108001 109.29,295.892 C108.755997,295.675999 108.279002,295.280003 107.859,294.704 L109.083,293.696 C109.347001,293.960001 109.640998,294.193999 109.965,294.398 C110.289002,294.602001 110.684998,294.704 111.153,294.704 C111.357001,294.704 111.563999,294.683 111.774,294.641 C111.984001,294.599 112.169999,294.533 112.332,294.443 C112.494001,294.353 112.625999,294.239001 112.728,294.101 C112.830001,293.962999 112.881,293.804001 112.881,293.624 C112.881,293.383999 112.806001,293.186001 112.656,293.03 C112.505999,292.873999 112.326001,292.751 112.116,292.661 C111.905999,292.571 111.684001,292.499 111.45,292.445 C111.215999,292.391 111.009001,292.346 110.829,292.31 C110.480998,292.226 110.151002,292.130001 109.839,292.022 C109.526998,291.913999 109.251001,291.770001 109.011,291.59 C108.770999,291.409999 108.579001,291.182001 108.435,290.906 C108.290999,290.629999 108.219,290.288002 108.219,289.88 C108.219,289.435998 108.311999,289.049002 108.498,288.719 C108.684001,288.388998 108.929998,288.116001 109.236,287.9 C109.542002,287.683999 109.889998,287.522001 110.28,287.414 C110.670002,287.305999 111.062998,287.252 111.459,287.252 C112.035003,287.252 112.586997,287.359999 113.115,287.576 C113.643003,287.792001 114.062998,288.151997 114.375,288.656 L113.115,289.61 Z M121.107,289.61 C120.914999,289.369999 120.678001,289.169001 120.396,289.007 C120.113999,288.844999 119.769002,288.764 119.361,288.764 C118.976998,288.764 118.644001,288.844999 118.362,289.007 C118.079999,289.169001 117.939,289.405998 117.939,289.718 C117.939,289.970001 118.019999,290.173999 118.182,290.33 C118.344001,290.486001 118.535999,290.612 118.758,290.708 C118.980001,290.804 119.216999,290.876 119.469,290.924 C119.721001,290.972 119.936999,291.014 120.117,291.05 C120.465002,291.134 120.791998,291.235999 121.098,291.356 C121.404002,291.476001 121.667999,291.631999 121.89,291.824 C122.112001,292.016001 122.285999,292.249999 122.412,292.526 C122.538001,292.802001 122.601,293.137998 122.601,293.534 C122.601,294.014002 122.499001,294.424998 122.295,294.767 C122.090999,295.109002 121.827002,295.387999 121.503,295.604 C121.178998,295.820001 120.810002,295.976 120.396,296.072 C119.981998,296.168 119.565002,296.216 119.145,296.216 C118.436996,296.216 117.816003,296.108001 117.282,295.892 C116.747997,295.675999 116.271002,295.280003 115.851,294.704 L117.075,293.696 C117.339001,293.960001 117.632998,294.193999 117.957,294.398 C118.281002,294.602001 118.676998,294.704 119.145,294.704 C119.349001,294.704 119.555999,294.683 119.766,294.641 C119.976001,294.599 120.161999,294.533 120.324,294.443 C120.486001,294.353 120.617999,294.239001 120.72,294.101 C120.822001,293.962999 120.873,293.804001 120.873,293.624 C120.873,293.383999 120.798001,293.186001 120.648,293.03 C120.497999,292.873999 120.318001,292.751 120.108,292.661 C119.897999,292.571 119.676001,292.499 119.442,292.445 C119.207999,292.391 119.001001,292.346 118.821,292.31 C118.472998,292.226 118.143002,292.130001 117.831,292.022 C117.518998,291.913999 117.243001,291.770001 117.003,291.59 C116.762999,291.409999 116.571001,291.182001 116.427,290.906 C116.282999,290.629999 116.211,290.288002 116.211,289.88 C116.211,289.435998 116.303999,289.049002 116.49,288.719 C116.676001,288.388998 116.921998,288.116001 117.228,287.9 C117.534002,287.683999 117.881998,287.522001 118.272,287.414 C118.662002,287.305999 119.054998,287.252 119.451,287.252 C120.027003,287.252 120.578997,287.359999 121.107,287.576 C121.635003,287.792001 122.054998,288.151997 122.367,288.656 L121.107,289.61 Z M130.197,288.872 L128.361,288.872 L128.361,287.468 L130.197,287.468 L130.197,285.56 C130.197,284.419994 130.415998,283.571003 130.854,283.013 C131.292002,282.454997 132.044995,282.176 133.113,282.176 C133.293001,282.176 133.481999,282.182 133.68,282.194 C133.878001,282.206 134.090999,282.242 134.319,282.302 L134.139,283.742 C133.982999,283.682 133.833001,283.64 133.689,283.616 C133.544999,283.592 133.389001,283.58 133.221,283.58 C132.920999,283.58 132.681001,283.625 132.501,283.715 C132.320999,283.805 132.180001,283.933999 132.078,284.102 C131.975999,284.270001 131.91,284.470999 131.88,284.705 C131.85,284.939001 131.835,285.205999 131.835,285.506 L131.835,287.468 L133.761,287.468 L133.761,288.872 L131.817,288.872 L131.817,296 L130.197,296 L130.197,288.872 Z M135.687,287.468 L137.307,287.468 L137.307,296 L135.687,296 L135.687,287.468 Z M135.309,284.408 C135.309,284.083998 135.425999,283.805001 135.66,283.571 C135.894001,283.336999 136.172998,283.22 136.497,283.22 C136.821002,283.22 137.099999,283.336999 137.334,283.571 C137.568001,283.805001 137.685,284.083998 137.685,284.408 C137.685,284.732002 137.568001,285.010999 137.334,285.245 C137.099999,285.479001 136.821002,285.596 136.497,285.596 C136.172998,285.596 135.894001,285.479001 135.66,285.245 C135.425999,285.010999 135.309,284.732002 135.309,284.408 Z M140.007,282.392 L141.627,282.392 L141.627,296 L140.007,296 L140.007,282.392 Z M145.425,292.328 C145.425,292.700002 145.505999,293.038998 145.668,293.345 C145.830001,293.651002 146.042999,293.911999 146.307,294.128 C146.571001,294.344001 146.876998,294.511999 147.225,294.632 C147.573002,294.752001 147.932998,294.812 148.305,294.812 C148.809003,294.812 149.246998,294.695001 149.619,294.461 C149.991002,294.226999 150.332998,293.918002 150.645,293.534 L151.869,294.47 C150.968996,295.634006 149.709008,296.216 148.089,296.216 C147.416997,296.216 146.808003,296.102001 146.262,295.874 C145.715997,295.645999 145.254002,295.331002 144.876,294.929 C144.497998,294.526998 144.207001,294.053003 144.003,293.507 C143.798999,292.960997 143.697,292.370003 143.697,291.734 C143.697,291.097997 143.807999,290.507003 144.03,289.961 C144.252001,289.414997 144.557998,288.941002 144.948,288.539 C145.338002,288.136998 145.802997,287.822001 146.343,287.594 C146.883003,287.365999 147.470997,287.252 148.107,287.252 C148.863004,287.252 149.501997,287.383999 150.024,287.648 C150.546003,287.912001 150.974998,288.256998 151.311,288.683 C151.647002,289.109002 151.889999,289.588997 152.04,290.123 C152.190001,290.657003 152.265,291.199997 152.265,291.752 L152.265,292.328 L145.425,292.328 Z M150.537,291.032 C150.525,290.671998 150.468001,290.342001 150.366,290.042 C150.263999,289.741999 150.111001,289.481001 149.907,289.259 C149.702999,289.036999 149.448002,288.863001 149.142,288.737 C148.835998,288.610999 148.479002,288.548 148.071,288.548 C147.674998,288.548 147.312002,288.622999 146.982,288.773 C146.651998,288.923001 146.373001,289.117999 146.145,289.358 C145.916999,289.598001 145.740001,289.864999 145.614,290.159 C145.487999,290.453001 145.425,290.743999 145.425,291.032 L150.537,291.032 Z M158.745,289.61 C158.552999,289.369999 158.316001,289.169001 158.034,289.007 C157.751999,288.844999 157.407002,288.764 156.999,288.764 C156.614998,288.764 156.282001,288.844999 156,289.007 C155.717999,289.169001 155.577,289.405998 155.577,289.718 C155.577,289.970001 155.657999,290.173999 155.82,290.33 C155.982001,290.486001 156.173999,290.612 156.396,290.708 C156.618001,290.804 156.854999,290.876 157.107,290.924 C157.359001,290.972 157.574999,291.014 157.755,291.05 C158.103002,291.134 158.429998,291.235999 158.736,291.356 C159.042002,291.476001 159.305999,291.631999 159.528,291.824 C159.750001,292.016001 159.923999,292.249999 160.05,292.526 C160.176001,292.802001 160.239,293.137998 160.239,293.534 C160.239,294.014002 160.137001,294.424998 159.933,294.767 C159.728999,295.109002 159.465002,295.387999 159.141,295.604 C158.816998,295.820001 158.448002,295.976 158.034,296.072 C157.619998,296.168 157.203002,296.216 156.783,296.216 C156.074996,296.216 155.454003,296.108001 154.92,295.892 C154.385997,295.675999 153.909002,295.280003 153.489,294.704 L154.713,293.696 C154.977001,293.960001 155.270998,294.193999 155.595,294.398 C155.919002,294.602001 156.314998,294.704 156.783,294.704 C156.987001,294.704 157.193999,294.683 157.404,294.641 C157.614001,294.599 157.799999,294.533 157.962,294.443 C158.124001,294.353 158.255999,294.239001 158.358,294.101 C158.460001,293.962999 158.511,293.804001 158.511,293.624 C158.511,293.383999 158.436001,293.186001 158.286,293.03 C158.135999,292.873999 157.956001,292.751 157.746,292.661 C157.535999,292.571 157.314001,292.499 157.08,292.445 C156.845999,292.391 156.639001,292.346 156.459,292.31 C156.110998,292.226 155.781002,292.130001 155.469,292.022 C155.156998,291.913999 154.881001,291.770001 154.641,291.59 C154.400999,291.409999 154.209001,291.182001 154.065,290.906 C153.920999,290.629999 153.849,290.288002 153.849,289.88 C153.849,289.435998 153.941999,289.049002 154.128,288.719 C154.314001,288.388998 154.559998,288.116001 154.866,287.9 C155.172002,287.683999 155.519998,287.522001 155.91,287.414 C156.300002,287.305999 156.692998,287.252 157.089,287.252 C157.665003,287.252 158.216997,287.359999 158.745,287.576 C159.273003,287.792001 159.692998,288.151997 160.005,288.656 L158.745,289.61 Z" id="path-3"></path>
    </defs>
    <g id="Page-1" stroke="none" stroke-width="1" fill="none" fill-rule="evenodd">
        <g id="docker-containers-1">
            <g id="Group-2">
                <rect id="Rectangle" fill="#158AB9" fill-rule="nonzero" x="0" y="0" width="142" height="93" rx="6"></rect>
                <g id="logo-mysql" transform="translate(23.000000, 19.000000)" fill="#FFFFFF">
                    <path d="M66.0245595,6 C65.6006407,6 65.3016551,6.06409971 65,6.15691075 L65,6.21967505 L65.0485852,6.21967505 C65.2504004,6.71845092 65.6006407,7.06498998 65.8483716,7.50166926 C66.049653,8.00178055 66.2247731,8.50055642 66.4244527,9 C66.4490123,8.96995326 66.4730379,8.9372357 66.4730379,8.9372357 C66.8254138,8.62608502 67,8.12597374 67,7.37480525 C66.8489055,7.1551302 66.8254138,6.93812597 66.6994127,6.71845092 C66.5499199,6.40663254 66.2247731,6.25038949 66.0245595,6" id="Fill-3"></path>
                    <path d="M23,59 L19.3084311,59 C19.1786227,52.7849546 18.8188029,46.9407786 18.2306797,41.4663362 L18.1982276,41.4663362 L12.5783207,59 L9.76751324,59 L4.18176642,41.4663362 L4.14874499,41.4663362 C3.73483836,46.7238228 3.47408288,52.5679988 3.36533987,59 L0,59 C0.217486014,51.1776642 0.761770385,43.8448988 1.63285311,37 L6.20746077,37 L11.5330214,53.1649112 L11.5660429,53.1649112 L16.9240556,37 L21.301104,37 C22.2598643,45.0165737 22.8257835,52.3516109 23,59" id="Fill-4"></path>
                    <path d="M39,43 C37.5493936,51.1360527 35.6361317,57.0485349 33.2607638,60.7368788 C31.4101417,63.5789596 29.3831391,65 27.1753601,65 C26.5868755,65 25.8615723,64.8165483 25,64.4524848 L25,62.4913128 C25.4208956,62.5549245 25.9143216,62.5890022 26.4824758,62.5890022 C27.5121865,62.5890022 28.3418894,62.294798 28.9737823,61.7075255 C29.729856,60.9918936 30.1078928,60.1876597 30.1078928,59.2965277 C30.1078928,58.6876726 29.8128262,57.4387247 29.2254406,55.5491158 L25.315397,43 L28.8155344,43 L31.621139,52.3855686 C32.251933,54.5165612 32.5145806,56.0040532 32.4096315,56.8520201 C33.9443071,52.6150252 35.0163272,47.9974958 35.6262412,43 L39,43" id="Fill-5"></path>
                    <polyline id="Fill-6" points="88 59 78 59 78 37 81.3650035 37 81.3650035 56.2937319 88 56.2937319 88 59"></polyline>
                    <path d="M62.0096358,54.6921007 C61.1260793,53.2767102 60.6834564,51.0053589 60.6834564,47.8735622 C60.6834564,42.4059508 62.3537104,39.6704635 65.6925291,39.6704635 C67.438243,39.6704635 68.7193718,40.3246261 69.5387311,41.6318303 C70.4211613,43.0477813 70.8637843,45.2995134 70.8637843,48.3875872 C70.8637843,53.8989215 69.1935302,56.6557098 65.8547116,56.6557098 C64.1095608,56.6557098 62.8278689,56.0021077 62.0096358,54.6921007 M75,59.5593623 L70.9904893,57.5912689 C71.347516,57.2997825 71.6865223,56.9853136 71.9934301,56.6215162 C73.6957828,54.629319 74.5478038,51.6808224 74.5478038,47.7771475 C74.5478038,40.5936904 71.714679,37 66.0489926,37 C63.2699287,37 61.1041171,37.9108949 59.5532474,39.7354873 C57.8503316,41.7299267 57,44.6672123 57,48.5490258 C57,52.3658154 57.7534727,55.165766 59.2615442,56.9443934 C60.6406582,58.5520527 62.7197472,59.3570035 65.4993743,59.3570035 C66.5372294,59.3570035 67.4894882,59.2297585 68.3550244,58.9752685 L73.5763984,62 L75,59.5593623" id="Fill-7"></path>
                    <path d="M56,52.7778337 C56,54.5953525 55.3053237,56.0875437 53.9205755,57.2549606 C52.5346763,58.4173981 50.6728058,59 48.341295,59 C46.1605755,59 44.0471942,58.3294269 42,56.9987928 L42.9576978,55.1580364 C44.7194245,56.004552 46.3136691,56.4272565 47.745036,56.4272565 C49.0877698,56.4272565 50.138705,56.1401051 50.8989928,55.5724417 C51.657554,55.0009054 52.1122302,54.2036315 52.1122302,53.192239 C52.1122302,51.9196992 51.1890647,50.8319543 49.4952518,49.9195986 C47.9315108,49.0946609 44.8063309,47.3723059 44.8063309,47.3723059 C43.1130935,46.184971 42.2641727,44.9107713 42.2641727,42.8116339 C42.2641727,41.075447 42.8972662,39.6723336 44.1617266,38.6045067 C45.4290647,37.53502 47.0641727,37 49.0664748,37 C51.1361151,37 53.0181295,37.531147 54.7130935,38.5890149 L53.8520863,40.4281116 C52.4017266,39.8372105 50.9715108,39.5406534 49.5614388,39.5406534 C48.4172662,39.5406534 47.5355396,39.8045671 46.9208633,40.3357141 C46.3027338,40.8624349 45.9205755,41.5402007 45.9205755,42.366245 C45.9205755,43.6354651 46.8638849,44.7364887 48.6054676,45.6665493 C50.188777,46.4920403 53.3905036,48.247592 53.3905036,48.247592 C55.1320863,49.4327138 56,50.6964012 56,52.7778337" id="Fill-8"></path>
                    <path d="M92.9231566,29.3913858 C90.8001404,29.3385066 89.1560213,29.5488982 87.7771375,30.1283187 C87.3792845,30.2863936 86.7433998,30.2863936 86.6889925,30.7864955 C86.9026543,30.996887 86.9281577,31.3389139 87.1151827,31.6297492 C87.4325583,32.1562906 87.9885324,32.8656589 88.4934997,33.235813 C89.0506072,33.6571586 89.6077148,34.0768166 90.192026,34.4452831 C91.2257638,35.0798329 92.3932527,35.4466118 93.3997868,36.0789115 C93.9852315,36.4473779 94.566709,36.9204776 95.1521537,37.3165088 C95.4428924,37.5274629 95.6270836,37.8700523 96,38 L96,37.9206813 C95.8129751,37.6844127 95.7608348,37.3418233 95.5760768,37.0774275 C95.3114082,36.8158444 95.0456061,36.5773257 94.7798041,36.3151801 C94.0101682,35.2885369 93.0540741,34.3940915 92.0220366,33.6571586 C91.17249,33.0760504 89.3147091,32.2862383 88.9712633,31.315287 C88.9712633,31.315287 88.943493,31.2871598 88.9174228,31.2612828 C89.5011673,31.2078411 90.192026,30.996887 90.7485668,30.8371244 C91.6491202,30.6008559 92.4714631,30.6542976 93.3997868,30.418029 C93.8248435,30.3117081 94.2493334,30.1795102 94.6755235,30.0501251 L94.6755235,29.8116063 C94.1954929,29.3385066 93.8520471,28.7056444 93.3482133,28.2584217 C91.9965332,27.1001432 90.5094016,25.9694293 88.9712633,25.0198546 C88.1477869,24.4933132 87.0868455,24.1524114 86.2112289,23.7035012 C85.89442,23.5454262 85.364516,23.4672326 85.1780578,23.2028368 C84.7002942,22.6234163 84.4339253,21.8611688 84.0899128,21.1754274 C83.3214104,19.7291262 82.5772779,18.123625 81.915323,16.5940673 C81.4381261,15.5679866 81.1462539,14.541906 80.5625094,13.5934564 C77.8291118,9.1167295 74.8593828,6.40639145 70.2971081,3.74668237 C69.3155106,3.19257631 68.1485885,2.95630774 66.9028891,2.66659746 C66.2386673,2.6390328 65.5761456,2.58784127 64.9130573,2.56196424 C64.4880006,2.37688719 64.062944,1.87622283 63.6922946,1.63939172 C62.1796597,0.692067247 58.2821736,-1.36121916 57.1673917,1.35024399 C56.4510296,3.06262859 58.2283331,4.74688599 58.8387145,5.61601682 C59.2892745,6.22075185 59.8735857,6.90649326 60.1903946,7.58998449 C60.376286,8.03776969 60.4295598,8.51255701 60.616018,8.9856567 C61.0399411,10.1439353 61.4372274,11.4344117 61.9954685,12.5144966 C62.2862072,13.0674776 62.6041496,13.6474607 62.9753657,14.1453123 C63.1895943,14.4367102 63.5596769,14.5666579 63.6395876,15.0420078 C63.2695049,15.5679866 63.2406011,16.3577987 63.0286395,17.016538 C62.0742456,19.9918344 62.444895,23.6776241 63.7982754,25.8625459 C64.2216318,26.5207226 65.2309996,27.969274 66.5838133,27.4151679 C67.7773723,26.9420682 67.512137,25.4412003 67.8567162,24.1254093 C67.9360601,23.8075718 67.8827864,23.5988679 68.0414742,23.3884764 L68.0414742,23.4419181 C68.4126903,24.1777259 68.7850399,24.8870942 69.1296192,25.6262773 C69.9530956,26.9150661 71.3841196,28.2584217 72.5788122,29.152867 C73.2135634,29.6282169 73.717964,30.4433435 74.51367,30.7336163 L74.51367,30.6542976 L74.4615297,30.6542976 C74.3017084,30.418029 74.0636767,30.3117081 73.8511484,30.1283187 C73.3739515,29.6540939 72.8446143,29.0746734 72.4716979,28.5486945 C71.3580495,27.0748287 70.3753185,25.4412003 69.5019688,23.7563803 C69.0763454,22.938441 68.705696,22.0439957 68.36055,21.2283066 C68.2018622,20.9138444 68.2018622,20.4384945 67.9360601,20.2809821 C67.5370736,20.8598401 66.9550294,21.3605045 66.6637239,22.0693102 C66.1593234,23.2028368 66.1066163,24.5979465 65.9195914,26.0464978 C65.8141774,26.0740625 65.8674511,26.0464978 65.8141774,26.0988145 C64.966331,25.8884229 64.6744588,25.0198546 64.355383,24.2846093 C63.5596769,22.4130247 63.4259258,19.4118513 64.1167845,17.2528066 C64.3015425,16.7009507 65.0995155,14.9632516 64.7798729,14.4367102 C64.6194848,13.9343582 64.0895809,13.6474607 63.7982754,13.250867 C63.4542629,12.7507652 63.0807798,12.1201531 62.8444483,11.566047 C62.2074301,10.0921812 61.8872207,8.45911531 61.1997624,6.98524945 C60.8812533,6.29950804 60.3230123,5.58845215 59.8735857,4.95784008 C59.3686184,4.24678418 58.8120776,3.74668237 58.4136578,2.90511621 C58.2821736,2.61484339 58.0962822,2.14061862 58.307677,1.82559385 C58.3598173,1.61463977 58.4674983,1.53532103 58.6800267,1.48187933 C59.0229057,1.1927316 60.0056366,1.56063552 60.3496491,1.71871045 C61.3318134,2.11249141 62.1541563,2.48320805 62.9753657,3.03506393 C63.3471486,3.29889717 63.7450016,3.79899898 64.2216318,3.93175942 L64.7798729,3.93175942 C65.6282859,4.11458629 66.5838133,3.98295094 67.380086,4.22090715 C68.7850399,4.6681298 70.0579429,5.32630654 71.1993617,6.03736244 C74.6729246,8.22284674 77.5378064,11.330341 79.4732309,15.0420078 C79.7923068,15.6467428 79.9260579,16.2002863 80.2173634,16.8308984 C80.774471,18.123625 81.464763,19.4399785 82.0207371,20.7023277 C82.5772779,21.939925 83.1088821,23.2028368 83.9057216,24.2311676 C84.3024412,24.7830235 85.89442,25.0727338 86.6107821,25.3624441 C87.1401193,25.5987126 87.9635957,25.8096667 88.4413594,26.0988145 C89.3430462,26.6512329 90.2430328,27.2840951 91.0931461,27.8905178 C91.5165025,28.2061051 92.843246,28.8637193 92.9231566,29.3913858" id="Fill-9"></path>
                    <path d="M90.8228706,59 L91.4282346,59 L91.4282346,56.5088496 L92.2204539,56.5088496 L92.2204539,56 L90,56 L90,56.5088496 L90.8228706,56.5088496 L90.8228706,59 Z M95.4294135,59 L96,59 L96,56 L95.1417625,56 L94.4432655,58.0448799 L93.6828765,56 L92.8558798,56 L92.8558798,59 L93.3958149,59 L93.3958149,56.7168142 L93.4264663,56.7168142 L94.2228117,59 L94.634247,59 L95.4294135,56.7168142 L95.4294135,59 Z" id="Fill-10"></path>
                </g>
            </g>
            <g id="Group" transform="translate(303.000000, 0.000000)">
                <rect id="Rectangle" fill="#158AB9" fill-rule="nonzero" x="0" y="0" width="142" height="93" rx="6"></rect>
                <g id="php-logo" transform="translate(24.000000, 22.000000)" fill="#FFFFFF">
                    <path d="M7.579,10.123 L21.783,10.123 C25.952,10.158 28.973,11.36 30.846,13.727 C32.719,16.094 33.337,19.327 32.701,23.426 C32.454,25.299 31.906,27.136 31.058,28.938 C30.245,30.74 29.115,32.365 27.666,33.814 C25.899,35.651 24.009,36.817 21.995,37.312 C19.981,37.807 17.896,38.054 15.741,38.054 L9.381,38.054 L7.367,48.124 L0,48.124 L7.579,10.123 M13.78,16.165 L10.6,32.065 C10.812,32.1 11.024,32.118 11.236,32.118 C11.483,32.118 11.731,32.118 11.978,32.118 C15.37,32.153 18.197,31.818 20.458,31.111 C22.719,30.369 24.239,27.79 25.016,23.373 C25.652,19.663 25.016,17.525 23.108,16.96 C21.235,16.395 18.886,16.13 16.059,16.165 C15.635,16.2 15.229,16.218 14.84,16.218 C14.487,16.218 14.116,16.218 13.727,16.218 L13.78,16.165" id="Shape" fill-rule="nonzero"></path>
                    <path d="M41.093,0 L48.407,0 L46.34,10.123 L52.912,10.123 C56.516,10.194 59.201,10.936 60.968,12.349 C62.77,13.762 63.3,16.448 62.558,20.405 L59.007,38.054 L51.587,38.054 L54.979,21.2 C55.332,19.433 55.226,18.179 54.661,17.437 C54.096,16.695 52.877,16.324 51.004,16.324 L45.121,16.271 L40.775,38.054 L33.461,38.054 L41.093,0" id="Path"></path>
                    <path d="M70.412,10.123 L84.616,10.123 C88.785,10.158 91.806,11.36 93.679,13.727 C95.552,16.094 96.17,19.327 95.534,23.426 C95.287,25.299 94.739,27.136 93.891,28.938 C93.078,30.74 91.948,32.365 90.499,33.814 C88.732,35.651 86.842,36.817 84.828,37.312 C82.814,37.807 80.729,38.054 78.574,38.054 L72.214,38.054 L70.2,48.124 L62.833,48.124 L70.412,10.123 M76.613,16.165 L73.433,32.065 C73.645,32.1 73.857,32.118 74.069,32.118 C74.316,32.118 74.564,32.118 74.811,32.118 C78.203,32.153 81.03,31.818 83.291,31.111 C85.552,30.369 87.072,27.79 87.849,23.373 C88.485,19.663 87.849,17.525 85.941,16.96 C84.068,16.395 81.719,16.13 78.892,16.165 C78.468,16.2 78.062,16.218 77.673,16.218 C77.32,16.218 76.949,16.218 76.56,16.218 L76.613,16.165" id="Shape" fill-rule="nonzero"></path>
                </g>
            </g>
            <g id="Group-3" transform="translate(303.000000, 223.000000)">
                <rect id="Rectangle" fill="#158AB9" fill-rule="nonzero" x="0" y="0" width="142" height="93" rx="6"></rect>
                <g id="nginx" transform="translate(23.000000, 41.000000)" fill="#FFFFFF">
                    <g id="svg_1">
                        <path d="M15.323876,17.2726536 C16.0571802,18.1635068 17.3142733,18.5594415 18.3618508,18.5594415 C19.8284593,18.5594415 20.8760368,17.6190965 20.8760368,16.5302759 L20.8760368,2.02916561 C20.8760368,0.890853193 19.8808381,2.19787939e-16 18.7285029,2.19787939e-16 L18.6237451,2.19787939e-16 C17.419031,2.19787939e-16 16.4762112,0.940345037 16.4762112,2.02916561 L16.4762112,12.5709284 L6.52422495,1.28678794 C5.7909207,0.395934752 4.53382769,0 3.48625019,0 C2.01964168,0 0.972064174,0.940345037 0.972064174,2.02916561 L0.972064174,16.5302759 C0.972064174,17.6685883 1.9672628,18.5594415 3.11959806,18.5594415 L3.22435581,18.5594415 C4.42906994,18.5594415 5.37188969,17.6190965 5.37188969,16.5302759 L5.37188969,5.98851313 L15.323876,17.2726536 Z" id="svg_2"></path>
                        <g id="svg_3" transform="translate(76.000000, 0.000000)">
                            <path d="M20.0379748,15.0455206 L13.9620252,9.30446668 L20.0379748,3.56341277 C20.8760368,2.77154327 20.8760368,1.48475532 20.0379748,0.692885816 L19.933217,0.593902128 C19.095155,-0.197967376 17.7333043,-0.197967376 16.8952422,0.593902128 L11.6049758,5.59257838 L11.2383237,5.93902128 L11.0288082,6.13698866 C10.9240505,6.23597235 10.8192927,6.23597235 10.714535,6.13698866 L10.4526406,5.88952944 L10.1383673,5.59257838 L4.84810094,0.593902128 C4.01003894,-0.197967376 2.64818818,-0.197967376 1.81012618,0.593902128 L1.70536843,0.692885816 C0.867306423,1.48475532 0.867306423,2.77154327 1.70536843,3.56341277 L7.67656021,9.30446668 L1.60061068,15.0455206 C0.762548673,15.8373901 0.762548673,17.124178 1.60061068,17.9160475 L1.70536843,18.0150312 C2.54343043,18.8069007 3.90528119,18.8069007 4.74334319,18.0150312 L10.0336096,13.016355 L10.4002617,12.6699121 L10.6097772,12.4719447 C10.714535,12.372961 10.8192927,12.372961 10.9240505,12.4719447 L11.0811871,12.6204202 L11.552597,13.0658468 L16.8428634,18.0645231 C17.6809254,18.8563926 19.0427761,18.8563926 19.8808381,18.0645231 L19.9855959,17.9655394 C20.8760368,17.124178 20.8760368,15.8373901 20.0379748,15.0455206 Z" id="svg_4"></path>
                        </g>
                        <path d="M59.524225,17.2726536 C58.7909207,18.1635068 57.5338277,18.5594415 56.4862502,18.5594415 C55.0196417,18.5594415 53.9720642,17.6190965 53.9720642,16.5302759 L53.9720642,2.02916561 C53.9720642,0.890853193 54.9672628,2.19787939e-16 56.1195981,2.19787939e-16 L56.2243558,2.19787939e-16 C57.4290699,2.19787939e-16 58.3718897,0.940345037 58.3718897,2.02916561 L58.3718897,12.5709284 L68.323876,1.28678794 C69.0571802,0.395934752 70.3142733,0 71.3618508,0 C72.8284593,0 73.8760368,0.940345037 73.8760368,2.02916561 L73.8760368,16.5302759 C73.8760368,17.6685883 72.8808381,18.5594415 71.7285029,18.5594415 L71.6237451,18.5594415 C70.419031,18.5594415 69.4762112,17.6190965 69.4762112,16.5302759 L69.4762112,5.98851313 L59.524225,17.2726536 Z" id="svg_5"></path>
                        <path d="M51.8481009,1.97967376 C51.8481009,0.890853193 50.9576601,0 49.9100826,0 C48.8625051,0 47.9720642,0.890853193 47.9720642,1.97967376 L47.9720642,6.73089079 C47.9720642,6.82987448 48.0768219,6.92885816 48.1815797,6.92885816 L51.6385854,6.92885816 C51.7433432,6.92885816 51.8481009,6.82987448 51.8481009,6.73089079 L51.8481009,1.97967376 Z" id="svg_6"></path>
                        <path d="M51.8481009,8.19796738 C51.8481009,8.09898369 51.7433432,8 51.6385854,8 L48.1815797,8 C48.0768219,8 47.9720642,8.09898369 47.9720642,8.19796738 L47.9720642,16.0176787 C47.9720642,17.0570075 48.8625051,17.9478607 49.9100826,17.9478607 C50.9576601,17.9478607 51.8481009,17.1064993 51.8481009,16.0176787 L51.8481009,8.19796738 Z" id="svg_7"></path>
                        <path d="M45.2985597,8.46310533 L32.9371452,8.46310533 C31.7848099,8.46310533 30.8419902,9.20548299 30.8419902,10.2448117 C30.8419902,11.2841404 31.7848099,11.9770263 32.9371452,11.9770263 L39.1702313,11.9770263 L37.4941073,14.6495858 C37.3893496,14.8475532 37.232213,14.8970451 37.0226975,14.8970451 L30.9467479,14.8970451 C30.6848536,14.8970451 30.5800958,14.8475532 30.4753381,14.6495858 L27.3849844,9.30446668 C27.2802267,9.15599115 27.2802267,9.00751561 27.3849844,8.80954824 L30.4753381,3.61290461 C30.5800958,3.41493724 30.7372324,3.36544539 30.9467479,3.36544539 L37.0226975,3.36544539 C37.2845918,3.36544539 37.3893496,3.41493724 37.5464862,3.61290461 L39.4321257,6.58241526 C39.5368835,6.73089079 39.5892623,6.78038263 39.7987778,6.78038263 L44.0938456,6.78038263 L39.9559145,0.197967376 C39.8511567,0.049491844 39.746399,0 39.5368835,0 L28.4325619,0 C28.1706675,0 28.0659098,0.0989836881 27.961152,0.296951064 L23.0899166,8.76005639 C22.93278,9.00751561 22.93278,9.15599115 23.0899166,9.40345037 L28.2230464,18.1140149 C28.3278042,18.3119823 28.4849408,18.3614741 28.7468352,18.3614741 L39.3797468,18.3614741 C39.6416412,18.3614741 39.7987778,18.3119823 39.9035356,18.0645231 L45.2985597,8.46310533 Z" id="svg_8"></path>
                    </g>
                </g>
            </g>
            <path id="Line" d="M156,45.5 L303,45.5 L304,45.5 L304,47.5 L303,47.5 L156,47.5 L156,53.5 L142,46.5 L156,39.5 L156,45.5 Z" fill="#158AB9" fill-rule="nonzero"></path>
            <path id="Line" d="M112.219914,216.095386 L373.571347,92.0965309 L374.474816,91.6678777 L375.332122,93.4748159 L374.428653,93.9034691 L113.077221,217.902324 L115.64914,223.323139 L100,223 L109.647995,210.674571 L112.219914,216.095386 Z" fill="#979797" fill-rule="nonzero"></path>
            <path id="Line" d="M208.25445,268.064378 L303.004598,268.500011 L304.004587,268.504608 L303.995392,270.504587 L302.995402,270.499989 L208.245254,270.064357 L208.217668,276.064293 L194.25,269 L208.282036,262.064441 L208.25445,268.064378 Z" fill="#979797" fill-rule="nonzero"></path>
            <g id="Group-7" transform="translate(11.000000, 357.000000)">
                <path id="Line" d="M39,13.5 L1,13.5 L-1.34448008e-13,13.5 L-1.34003919e-13,11.5 L1,11.5 L39,11.5 L39,5.5 L53,12.5 L39,19.5 L39,13.5 Z" fill="#979797" fill-rule="nonzero"></path>
                <text id="File-system-link" fill="#000000" font-family="Avenir-Book, Avenir" font-size="15" font-weight="normal">
                    <tspan x="61.45" y="15">File system link</tspan>
                </text>
                <path id="Line" d="M39,40.5 L1,40.5 L-1.27675648e-13,40.5 L-1.27675648e-13,38.5 L1,38.5 L39,38.5 L39,32.5 L53,39.5 L39,46.5 L39,40.5 Z" fill="#158AB9" fill-rule="nonzero"></path>
                <text id="Network-link" fill="#000000" font-family="Avenir-Book, Avenir" font-size="15" font-weight="normal">
                    <tspan x="61.0675" y="45">Network link</tspan>
                </text>
            </g>
            <path id="Line" d="M375,107 L375,223 L375,224 L373,224 L373,223 L373,107 L367,107 L374,93 L381,107 L375,107 Z" fill="#158AB9" fill-rule="nonzero"></path>
            <g id="Group-5" transform="translate(6.000000, 222.000000)" fill="#EFEDED" fill-rule="nonzero" stroke="#979797" stroke-dasharray="7" stroke-width="8">
                <use id="Rectangle" mask="url(#mask-2)" xlink:href="#path-1"></use>
            </g>
            <g id="-Wordpress-files">
                <use fill="#FFFFFF" xlink:href="#path-3"></use>
                <use fill="#616C75" xlink:href="#path-3"></use>
            </g>
        </g>
    </g>
</svg>