<?xml version="1.0" encoding="UTF-8"?>
<svg width="650px" height="93px" viewBox="0 0 650 93" version="1.1" xmlns="http://www.w3.org/2000/svg" xmlns:xlink="http://www.w3.org/1999/xlink">
    <!-- Generator: Sketch 43.2 (39069) - http://www.bohemiancoding.com/sketch -->
    <title>Body</title>
    <desc>Created with Sketch.</desc>
    <defs>
        <linearGradient x1="49.9999384%" y1="100.000231%" x2="49.9999384%" y2="0.000347133832%" id="linearGradient-1">
            <stop stop-color="#C9C9C9" offset="0%"></stop>
            <stop stop-color="#EAEAEA" offset="98.88%"></stop>
        </linearGradient>
        <linearGradient x1="49.9999384%" y1="0.0186741363%" x2="49.9999384%" y2="100%" id="linearGradient-2">
            <stop stop-color="#666666" offset="0%"></stop>
            <stop stop-color="#CCCCCC" offset="100%"></stop>
        </linearGradient>
    </defs>
    <g id="Page-1" stroke="none" stroke-width="1" fill="none" fill-rule="evenodd">
        <g id="mbp" transform="translate(0.000000, -324.000000)">
            <g id="Body" transform="translate(0.000000, 324.000000)">
                <path d="M520.442,3.408 L130.127,3.408 L132.127,0.319 L81.337,0.319 C79.442,0.319 77.744,0.889 76.604,1.926 C65.481,12.044 4.109,68.001 1.42,70.438 C-1.518,73.102 0.35,77.354 6.279,77.354 L272.581,77.354 L272.581,82.047 C272.581,84.629 275.25,86.741 278.51,86.741 L371.398,86.741 C374.658,86.741 377.327,84.629 377.327,82.047 L377.327,77.354 L643.629,77.354 C649.558,77.354 651.426,73.102 648.488,70.438 C645.8,68.001 584.427,12.044 573.304,1.927 C572.163,0.89 570.465,0.32 568.571,0.32 L517.443,0.32 L520.442,3.408 Z" id="Shape" fill="url(#linearGradient-1)" fill-rule="nonzero"></path>
                <path d="M427.09,69.117 C427.71,71.202 426.437,72.907 424.263,72.907 L225.646,72.907 C223.472,72.907 222.199,71.202 222.818,69.117 L229.463,46.722 C230.082,44.638 232.366,42.933 234.54,42.933 L415.37,42.933 C417.543,42.933 419.828,44.638 420.445,46.722 L427.09,69.117 Z" id="Shape" fill="#CDCDCD" fill-rule="nonzero"></path>
                <path d="M640.168,90.857 C648.897,90.857 649.887,88.716 649.887,88.716 C649.887,88.716 644.946,93 614.642,93 L35.264,93 C4.961,93 0.019,88.717 0.019,88.717 C0.019,88.717 1.01,90.858 9.738,90.858 L640.168,90.858 L640.168,90.857 Z" id="Shape" fill="url(#linearGradient-2)" fill-rule="nonzero"></path>
                <path d="M643.664,77.354 L377.326,77.354 L377.326,82.047 C377.326,84.629 374.657,86.741 371.397,86.741 L278.51,86.741 C275.251,86.741 272.581,84.629 272.581,82.047 L272.581,77.354 L6.279,77.354 C2.334,77.354 0.15,75.471 0.019,73.426 L0.019,88.717 C0.019,88.717 1.01,90.858 9.738,90.858 L324.869,90.858 L640.167,90.858 C648.896,90.858 649.886,88.717 649.886,88.717 L649.886,73.286 C649.848,75.384 647.7,77.354 643.664,77.354 Z" id="Shape" fill="#C9C9C9" fill-rule="nonzero"></path>
                <path d="M377.326,77.354 L377.326,82.047 C377.326,84.629 374.657,86.741 371.397,86.741 L278.51,86.741 C275.251,86.741 272.581,84.629 272.581,82.047 L272.581,77.354 L377.326,77.354 Z" id="Shape" fill="#D1D1D1" fill-rule="nonzero"></path>
                <g id="Keyboard-laptop" transform="translate(96.000000, 5.000000)" fill="#1E1E1E">
                    <path d="M118.197652,25.7142993 C118.400096,25.2323936 120.541899,24.8417318 122.978555,24.8417318 L337.021445,24.8417318 C339.459421,24.8417318 341.599562,25.2315786 341.802348,25.7142993 L343.998577,30.942282 C344.201022,31.4241877 342.335457,31.8148495 339.834749,31.8148495 L120.165251,31.8148495 C117.663188,31.8148495 115.798636,31.4250026 116.001423,30.942282 L118.197652,25.7142993 Z" id="Rectangle-2"></path>
                    <path d="M419.289124,25.7142993 C418.946372,25.2323936 420.642395,24.8417318 423.086513,24.8417318 L449.556909,24.8417318 C451.996901,24.8417318 454.304069,25.2315786 454.711651,25.7142993 L459.125853,30.942282 C459.532746,31.4241877 457.836832,31.8148495 455.328465,31.8148495 L428.162233,31.8148495 C425.658101,31.8148495 423.350824,31.4250026 423.007492,30.942282 L419.289124,25.7142993 Z" id="Rectangle-Copy-47"></path>
                    <path d="M381.65269,25.7142993 C381.378088,25.2323936 383.129356,24.8417318 385.573474,24.8417318 L412.043871,24.8417318 C414.483863,24.8417318 416.7359,25.2315786 417.075216,25.7142993 L420.750095,30.942282 C421.088838,31.4241877 419.337678,31.8148495 416.829311,31.8148495 L389.663079,31.8148495 C387.158946,31.8148495 384.906801,31.4250026 384.631734,30.942282 L381.65269,25.7142993 Z" id="Rectangle-Copy-46"></path>
                    <path d="M344.016256,25.7142993 C343.809803,25.2323936 345.616318,24.8417318 348.060436,24.8417318 L374.530833,24.8417318 C376.970825,24.8417318 379.167731,25.2315786 379.438782,25.7142993 L382.374336,30.942282 C382.64493,31.4241877 380.838523,31.8148495 378.330156,31.8148495 L351.163925,31.8148495 C348.659792,31.8148495 346.462777,31.4250026 346.255975,30.942282 L344.016256,25.7142993 Z" id="Rectangle-Copy-45"></path>
                    <path d="M80.5612176,25.7142993 C80.8318115,25.2323936 83.0250494,24.8417318 85.4691675,24.8417318 L111.939564,24.8417318 C114.379556,24.8417318 116.190546,25.2315786 115.983744,25.7142993 L113.744025,30.942282 C113.537572,31.4241877 111.344443,31.8148495 108.836075,31.8148495 L81.6698439,31.8148495 C79.1657111,31.8148495 77.3546126,31.4250026 77.625664,30.942282 L80.5612176,25.7142993 Z" id="Rectangle-Copy-38"></path>
                    <path d="M42.9247836,25.7142993 C43.263527,25.2323936 45.512011,24.8417318 47.9561291,24.8417318 L74.4265256,24.8417318 C76.8665176,24.8417318 78.6223768,25.2315786 78.3473098,25.7142993 L75.3682665,30.942282 C75.0936638,31.4241877 72.8452883,31.8148495 70.3369209,31.8148495 L43.1706895,31.8148495 C40.6665568,31.8148495 38.9105891,31.4250026 39.2499053,30.942282 L42.9247836,25.7142993 Z" id="Rectangle-Copy-37"></path>
                    <path d="M5.28834949,25.7142993 C5.69524251,25.2323936 7.99897263,24.8417318 10.4430907,24.8417318 L36.9134873,24.8417318 C39.3534792,24.8417318 41.0542075,25.2315786 40.7108757,25.7142993 L36.9925078,30.942282 C36.6497555,31.4241877 34.3461339,31.8148495 31.8377665,31.8148495 L4.67153508,31.8148495 C2.16740235,31.8148495 0.466565572,31.4250026 0.874146659,30.942282 L5.28834949,25.7142993 Z" id="Rectangle-Copy-36"></path>
                    <path d="M387.659321,17.433722 C387.364675,16.9518163 389.048394,16.5611545 391.4011,16.5611545 L441.639103,16.5611545 C444.000277,16.5611545 446.24193,16.9510014 446.647503,17.433722 L451.039961,22.6617047 C451.44485,23.1436104 449.798331,23.5342722 447.381786,23.5342722 L395.780609,23.5342722 C393.355366,23.5342722 391.150958,23.1444254 390.855813,22.6617047 L387.659321,17.433722 Z" id="Rectangle-Copy-34"></path>
                    <path d="M351.1939,17.433722 C350.967403,16.9518163 352.696052,16.5611545 355.063874,16.5611545 L380.707967,16.5611545 C383.071792,16.5611545 385.223167,16.9510014 385.514297,17.433722 L388.667299,22.6617047 C388.957937,23.1436104 387.229396,23.5342722 384.797325,23.5342722 L358.457397,23.5342722 C356.029432,23.5342722 353.877947,23.1444254 353.651067,22.6617047 L351.1939,17.433722 Z" id="Rectangle-Copy-33"></path>
                    <path d="M314.728479,17.433722 C314.570131,16.9518163 316.354027,16.5611545 318.721849,16.5611545 L344.365941,16.5611545 C346.729766,16.5611545 348.826011,16.9510014 349.048875,17.433722 L351.462553,22.6617047 C351.685041,23.1436104 349.901254,23.5342722 347.469183,23.5342722 L321.129255,23.5342722 C318.70129,23.5342722 316.604937,23.1444254 316.446321,22.6617047 L314.728479,17.433722 Z" id="Rectangle-Copy-32"></path>
                    <path d="M278.263058,17.433722 C278.17286,16.9518163 280.012001,16.5611545 282.379823,16.5611545 L308.023916,16.5611545 C310.38774,16.5611545 312.428854,16.9510014 312.583454,17.433722 L314.257807,22.6617047 C314.412146,23.1436104 312.573113,23.5342722 310.141041,23.5342722 L283.801114,23.5342722 C281.373148,23.5342722 279.331926,23.1444254 279.241575,22.6617047 L278.263058,17.433722 Z" id="Rectangle-Copy-31"></path>
                    <path d="M241.797636,17.433722 C241.775588,16.9518163 243.669975,16.5611545 246.037798,16.5611545 L271.68189,16.5611545 C274.045715,16.5611545 276.031698,16.9510014 276.118033,17.433722 L277.053061,22.6617047 C277.13925,23.1436104 275.244971,23.5342722 272.8129,23.5342722 L246.472972,23.5342722 C244.045007,23.5342722 242.058915,23.1444254 242.03683,22.6617047 L241.797636,17.433722 Z" id="Rectangle-Copy-30"></path>
                    <path d="M205.332215,17.433722 C205.378316,16.9518163 207.32795,16.5611545 209.695772,16.5611545 L235.339865,16.5611545 C237.703689,16.5611545 239.634541,16.9510014 239.652612,17.433722 L239.848315,22.6617047 C239.866355,23.1436104 237.916829,23.5342722 235.484758,23.5342722 L209.144831,23.5342722 C206.716865,23.5342722 204.785905,23.1444254 204.832084,22.6617047 L205.332215,17.433722 Z" id="Rectangle-Copy-29"></path>
                    <path d="M168.866794,17.433722 C168.981044,16.9518163 170.985924,16.5611545 173.353746,16.5611545 L198.997839,16.5611545 C201.361664,16.5611545 203.237385,16.9510014 203.18719,17.433722 L202.643569,22.6617047 C202.593459,23.1436104 200.588688,23.5342722 198.156617,23.5342722 L171.816689,23.5342722 C169.388723,23.5342722 167.512894,23.1444254 167.627338,22.6617047 L168.866794,17.433722 Z" id="Rectangle-Copy-28"></path>
                    <path d="M132.401372,17.433722 C132.583773,16.9518163 134.643899,16.5611545 137.011721,16.5611545 L162.655813,16.5611545 C165.019638,16.5611545 166.840228,16.9510014 166.721769,17.433722 L165.438823,22.6617047 C165.320564,23.1436104 163.260546,23.5342722 160.828475,23.5342722 L134.488547,23.5342722 C132.060582,23.5342722 130.239883,23.1444254 130.422592,22.6617047 L132.401372,17.433722 Z" id="Rectangle-Copy-27"></path>
                    <path d="M95.9359512,17.433722 C96.186501,16.9518163 98.3018731,16.5611545 100.669695,16.5611545 L126.313788,16.5611545 C128.677613,16.5611545 130.443072,16.9510014 130.256348,17.433722 L128.234077,22.6617047 C128.047668,23.1436104 125.932405,23.5342722 123.500333,23.5342722 L97.1604058,23.5342722 C94.7324402,23.5342722 92.9668724,23.1444254 93.217846,22.6617047 L95.9359512,17.433722 Z" id="Rectangle-Copy-26"></path>
                    <path d="M59.4705299,17.433722 C59.7892293,16.9518163 61.9598476,16.5611545 64.3276697,16.5611545 L89.9717622,16.5611545 C92.335587,16.5611545 94.0459155,16.9510014 93.7909264,17.433722 L91.0293315,22.6617047 C90.7747728,23.1436104 88.604263,23.5342722 86.1721917,23.5342722 L59.8322642,23.5342722 C57.4042986,23.5342722 55.6938617,23.1444254 56.0131001,22.6617047 L59.4705299,17.433722 Z" id="Rectangle-Copy-25"></path>
                    <path d="M12.2799847,17.433722 C12.6868777,16.9518163 14.9279806,16.5611545 17.2985722,16.5611545 L52.5590945,16.5611545 C54.9238908,16.5611545 56.5782544,16.9510014 56.2529927,17.433722 L52.7303284,22.6617047 C52.4056157,23.1436104 50.1792727,23.5342722 47.7443567,23.5342722 L11.5270642,23.5342722 C9.09810079,23.5342722 7.45820075,23.1444254 7.86578184,22.6617047 L12.2799847,17.433722 Z" id="Rectangle-Copy-24"></path>
                    <path d="M391.939051,9.15314477 C391.626365,8.67123904 393.223639,8.28057726 395.512436,8.28057726 L434.817639,8.28057726 C437.103852,8.28057726 439.284736,8.67042412 439.690309,9.15314477 L444.082767,14.3811274 C444.487656,14.8630332 442.913235,15.253695 440.560265,15.253695 L400.153033,15.253695 C397.80272,15.253695 395.644461,14.8638481 395.331246,14.3811274 L391.939051,9.15314477 Z" id="Rectangle-Copy-22"></path>
                    <path d="M356.644642,9.15314477 C356.400106,8.67123904 358.052514,8.28057726 360.34404,8.28057726 L385.161829,8.28057726 C387.449486,8.28057726 389.55371,8.67042412 389.862909,9.15314477 L393.211615,14.3811274 C393.520292,14.8630332 391.867992,15.253695 389.512217,15.253695 L363.998593,15.253695 C361.646795,15.253695 359.542463,14.8638481 359.297513,14.3811274 L356.644642,9.15314477 Z" id="Rectangle-Copy-21"></path>
                    <path d="M321.350234,9.15314477 C321.173847,8.67123904 322.881501,8.28057726 325.173027,8.28057726 L349.990816,8.28057726 C352.278473,8.28057726 354.327566,8.67042412 354.568501,9.15314477 L357.177882,14.3811274 C357.418409,14.8630332 355.710864,15.253695 353.355088,15.253695 L327.841465,15.253695 C325.489666,15.253695 323.440465,14.8638481 323.26378,14.3811274 L321.350234,9.15314477 Z" id="Rectangle-Copy-20"></path>
                    <path d="M286.055825,9.15314477 C285.947588,8.67123904 287.710488,8.28057726 290.002014,8.28057726 L314.819803,8.28057726 C317.107461,8.28057726 319.101422,8.67042412 319.274092,9.15314477 L321.144148,14.3811274 C321.316527,14.8630332 319.553735,15.253695 317.197959,15.253695 L291.684336,15.253695 C289.332537,15.253695 287.338467,14.8638481 287.230047,14.3811274 L286.055825,9.15314477 Z" id="Rectangle-Copy-19"></path>
                    <path d="M250.761417,9.15314477 C250.721329,8.67123904 252.539475,8.28057726 254.831002,8.28057726 L279.64879,8.28057726 C281.936448,8.28057726 283.875279,8.67042412 283.979684,9.15314477 L285.110415,14.3811274 C285.214644,14.8630332 283.396606,15.253695 281.040831,15.253695 L255.527207,15.253695 C253.175409,15.253695 251.236469,14.8638481 251.196314,14.3811274 L250.761417,9.15314477 Z" id="Rectangle-Copy-18"></path>
                    <path d="M215.467008,9.15314477 C215.49507,8.67123904 217.368463,8.28057726 219.659989,8.28057726 L244.477777,8.28057726 C246.765435,8.28057726 248.649135,8.67042412 248.685275,9.15314477 L249.076682,14.3811274 C249.112761,14.8630332 247.239477,15.253695 244.883702,15.253695 L219.370078,15.253695 C217.01828,15.253695 215.134471,14.8638481 215.16258,14.3811274 L215.467008,9.15314477 Z" id="Rectangle-Copy-17"></path>
                    <path d="M180.1726,9.15314477 C180.268811,8.67123904 182.19745,8.28057726 184.488976,8.28057726 L209.306765,8.28057726 C211.594422,8.28057726 213.422991,8.67042412 213.390867,9.15314477 L213.042949,14.3811274 C213.010879,14.8630332 211.082348,15.253695 208.726573,15.253695 L183.212949,15.253695 C180.861151,15.253695 179.032474,14.8638481 179.128847,14.3811274 L180.1726,9.15314477 Z" id="Rectangle-Copy-16"></path>
                    <path d="M144.878191,9.15314477 C145.042552,8.67123904 147.026437,8.28057726 149.317963,8.28057726 L174.135752,8.28057726 C176.423409,8.28057726 178.196848,8.67042412 178.096458,9.15314477 L177.009216,14.3811274 C176.908996,14.8630332 174.925219,15.253695 172.569444,15.253695 L147.055821,15.253695 C144.704022,15.253695 142.930476,14.8638481 143.095114,14.3811274 L144.878191,9.15314477 Z" id="Rectangle-Copy-15"></path>
                    <path d="M109.583783,9.15314477 C109.816293,8.67123904 111.855424,8.28057726 114.14695,8.28057726 L138.964739,8.28057726 C141.252397,8.28057726 142.970704,8.67042412 142.80205,9.15314477 L140.975483,14.3811274 C140.807113,14.8630332 138.768091,15.253695 136.412315,15.253695 L110.898692,15.253695 C108.546893,15.253695 106.828478,14.8638481 107.061381,14.3811274 L109.583783,9.15314477 Z" id="Rectangle-Copy-14"></path>
                    <path d="M74.2893743,9.15314477 C74.5900341,8.67123904 76.6844115,8.28057726 78.9759377,8.28057726 L103.793726,8.28057726 C106.081384,8.28057726 107.74456,8.67042412 107.507641,9.15314477 L104.94175,14.3811274 C104.705231,14.8630332 102.610962,15.253695 100.255186,15.253695 L74.7415629,15.253695 C72.3897645,15.253695 70.7264797,14.8638481 71.027648,14.3811274 L74.2893743,9.15314477 Z" id="Rectangle-Copy-13"></path>
                    <path d="M19.2716198,9.15314477 C19.6785129,8.67123904 21.8644305,8.28057726 24.1535684,8.28057726 L67.5852389,8.28057726 C69.8745716,8.28057726 71.4823534,8.67042412 71.1751618,9.15314477 L67.848201,14.3811274 C67.5415279,14.8630332 65.3848147,15.253695 63.0314946,15.253695 L18.3820978,15.253695 C16.0285773,15.253695 14.4498359,14.8638481 14.857417,14.3811274 L19.2716198,9.15314477 Z" id="Rectangle-Copy-12"></path>
                    <path d="M401.620608,0.872567507 C401.277856,0.39066178 402.789028,0 405.004258,0 L428.995742,0 C431.207233,0 433.329164,0.389846856 433.736745,0.872567507 L438.150948,6.10055019 C438.557841,6.58245591 437.046777,6.97311769 434.767298,6.97311769 L410.079978,6.97311769 C407.804347,6.97311769 405.682308,6.58327084 405.338976,6.10055019 L401.620608,0.872567507 Z" id="Rectangle-Copy-11"></path>
                    <path d="M367.497212,0.872567507 C367.222609,0.39066178 368.789028,0 371.004258,0 L394.995742,0 C397.207233,0 399.274033,0.389846856 399.613349,0.872567507 L403.288227,6.10055019 C403.626971,6.58245591 402.060661,6.97311769 399.781182,6.97311769 L375.093862,6.97311769 C372.818231,6.97311769 370.751322,6.58327084 370.476255,6.10055019 L367.497212,0.872567507 Z" id="Rectangle-Copy-10"></path>
                    <path d="M333.373816,0.872567507 C333.167363,0.39066178 334.789028,0 337.004258,0 L360.995742,0 C363.207233,0 365.218902,0.389846856 365.489954,0.872567507 L368.425507,6.10055019 C368.696101,6.58245591 367.074545,6.97311769 364.795066,6.97311769 L340.107746,6.97311769 C337.832115,6.97311769 335.820337,6.58327084 335.613535,6.10055019 L333.373816,0.872567507 Z" id="Rectangle-Copy-9"></path>
                    <path d="M299.250421,0.872567507 C299.112117,0.39066178 300.789028,0 303.004258,0 L326.995742,0 C329.207233,0 331.163771,0.389846856 331.366558,0.872567507 L333.562787,6.10055019 C333.765231,6.58245591 332.088429,6.97311769 329.80895,6.97311769 L305.12163,6.97311769 C302.845999,6.97311769 300.889352,6.58327084 300.750815,6.10055019 L299.250421,0.872567507 Z" id="Rectangle-Copy-8"></path>
                    <path d="M265.127025,0.872567507 C265.056871,0.39066178 266.789028,0 269.004258,0 L292.995742,0 C295.207233,0 297.10864,0.389846856 297.243162,0.872567507 L298.700067,6.10055019 C298.834361,6.58245591 297.102313,6.97311769 294.822834,6.97311769 L270.135514,6.97311769 C267.859883,6.97311769 265.958367,6.58327084 265.888094,6.10055019 L265.127025,0.872567507 Z" id="Rectangle-Copy-7"></path>
                    <path d="M231.003629,0.872567507 C231.001625,0.39066178 232.789028,0 235.004258,0 L258.995742,0 C261.207233,0 263.053509,0.389846856 263.119766,0.872567507 L263.837346,6.10055019 C263.903491,6.58245591 262.116197,6.97311769 259.836718,6.97311769 L235.149398,6.97311769 C232.873767,6.97311769 231.027382,6.58327084 231.025374,6.10055019 L231.003629,0.872567507 Z" id="Rectangle-Copy-6"></path>
                    <path d="M196.880234,0.872567507 C196.946379,0.39066178 198.789028,0 201.004258,0 L224.995742,0 C227.207233,0 228.998379,0.389846856 228.996371,0.872567507 L228.974626,6.10055019 C228.972621,6.58245591 227.130081,6.97311769 224.850602,6.97311769 L200.163282,6.97311769 C197.887651,6.97311769 196.096397,6.58327084 196.162654,6.10055019 L196.880234,0.872567507 Z" id="Rectangle-Copy-5"></path>
                    <path d="M162.756838,0.872567507 C162.891133,0.39066178 164.789028,0 167.004258,0 L190.995742,0 C193.207233,0 194.943248,0.389846856 194.872975,0.872567507 L194.111906,6.10055019 C194.041752,6.58245591 192.143965,6.97311769 189.864486,6.97311769 L165.177166,6.97311769 C162.901535,6.97311769 161.165412,6.58327084 161.299933,6.10055019 L162.756838,0.872567507 Z" id="Rectangle-Copy-4"></path>
                    <path d="M128.633442,0.872567507 C128.835886,0.39066178 130.789028,0 133.004258,0 L156.995742,0 C159.207233,0 160.888117,0.389846856 160.749579,0.872567507 L159.249185,6.10055019 C159.110882,6.58245591 157.157849,6.97311769 154.87837,6.97311769 L130.19105,6.97311769 C127.915419,6.97311769 126.234427,6.58327084 126.437213,6.10055019 L128.633442,0.872567507 Z" id="Rectangle-Copy-3"></path>
                    <path d="M94.5100464,0.872567507 C94.7806403,0.39066178 96.7890275,0 99.0042577,0 L122.995742,0 C125.207233,0 126.832986,0.389846856 126.626184,0.872567507 L124.386465,6.10055019 C124.180012,6.58245591 122.171733,6.97311769 119.892254,6.97311769 L95.2049341,6.97311769 C92.9293029,6.97311769 91.3034414,6.58327084 91.5744928,6.10055019 L94.5100464,0.872567507 Z" id="Rectangle-Copy-2"></path>
                    <path d="M60.3866507,0.872567507 C60.7253942,0.39066178 62.7890275,0 65.0042577,0 L88.9957423,0 C91.2072328,0 92.7778549,0.389846856 92.5027879,0.872567507 L89.5237446,6.10055019 C89.2491419,6.58245591 87.185617,6.97311769 84.9061376,6.97311769 L60.2188181,6.97311769 C57.9431869,6.97311769 56.3724562,6.58327084 56.7117725,6.10055019 L60.3866507,0.872567507 Z" id="Rectangle-Copy"></path>
                    <path d="M26.263255,0.872567507 C26.670148,0.39066178 28.7890275,0 31.0042577,0 L54.9957423,0 C57.2072328,0 58.722724,0.389846856 58.3793922,0.872567507 L54.6610243,6.10055019 C54.318272,6.58245591 52.199501,6.97311769 49.9200216,6.97311769 L25.2327021,6.97311769 C22.9570708,6.97311769 21.4414711,6.58327084 21.8490522,6.10055019 L26.263255,0.872567507 Z" id="Rectangle"></path>
                </g>
            </g>
        </g>
    </g>
</svg>