<?xml version="1.0" encoding="UTF-8"?>
<svg width="472px" height="392px" viewBox="0 0 472 392" version="1.1" xmlns="http://www.w3.org/2000/svg" xmlns:xlink="http://www.w3.org/1999/xlink">
    <!-- Generator: Sketch 43.2 (39069) - http://www.bohemiancoding.com/sketch -->
    <title>vaxter</title>
    <desc>Created with Sketch.</desc>
    <defs>
        <ellipse id="path-1" cx="119.5" cy="18.7738854" rx="118.637184" ry="18.7738854"></ellipse>
    </defs>
    <g id="Page-1" stroke="none" stroke-width="1" fill="none" fill-rule="evenodd">
        <g id="vaxter">
            <g id="Pot" transform="translate(162.000000, 260.000000)">
                <path d="M43.3950694,121.117177 C48.059044,126.575309 57.6677123,131 64.8350971,131 L172.473182,131 C179.650208,131 189.15858,126.504962 193.525,120.801315 C193.525,120.801315 230.939205,79.0627359 237.852501,18.080471 C185.468337,18.080471 51.8399425,18.080471 0.631229391,18.080471 C6.52864328,84.6291436 43.3950694,121.117177 43.3950694,121.117177 Z" id="Path-8" stroke="#979797" fill="#000000"></path>
                <g id="Oval">
                    <use fill="#4F4339" fill-rule="evenodd" xlink:href="#path-1"></use>
                    <ellipse stroke="#000000" stroke-width="3" cx="119.5" cy="18.7738854" rx="117.137184" ry="17.2738854"></ellipse>
                </g>
            </g>
            <path d="M243.452332,123.669259 C243.262599,95.2876419 240.262952,87.2567766 222.120619,57.1182143 C184.935013,-4.65557829 194.895004,-0.888920517 200.007807,23.2050864 C200.007807,23.2050864 216.710107,39.6179599 226.452822,57.1182143 C234.047621,70.7602969 242.544958,84.7641913 245.922528,106.460529 C246.764519,101.537894 247.724351,96.6507858 248.812403,91.8387431 C253.019246,73.2334505 258.820295,57.8728472 266.511656,46.5807345 C275.756182,33.0083327 287.601699,25.5781731 302.059155,25.6129514 C325.366938,25.6690198 383.804822,98.3631727 383.804822,98.3631727 C383.748091,98.2551737 383.624318,98.0248653 383.434766,97.6804501 C383.111499,97.0930728 382.72493,96.4078928 382.276334,95.6331185 C380.9863,93.4050883 379.463093,90.9164043 377.717118,88.2328194 C372.724394,80.5589437 366.961713,72.8842578 360.519162,65.7358126 C342.403356,45.6351035 322.643124,33.6624906 302.039911,33.6129282 C280.148265,33.5602665 265.244023,55.4420105 256.615421,93.6030841 C253.011841,109.54037 250.846378,126.415401 249.729606,142.622524 C257.295872,132.449878 270.28776,126.642596 289.345653,126.642596 C314.161793,126.642596 339.025024,138.163336 363.710587,159.393498 C384.350379,177.144204 404.381498,201.249929 423.592233,230.135014 C438.489341,252.534169 471.44073,335.316638 471.321842,335.036414 C471.12147,334.564128 470.881894,334.004984 470.603635,333.36209 C469.805854,331.518882 468.859599,329.37791 467.769064,326.964052 C464.648535,320.056884 461.000955,312.356002 456.860051,304.060585 C445.029658,280.360917 431.627688,256.663166 416.93094,234.56527 C398.092431,206.239861 378.506743,182.670173 358.494191,165.45891 C335.136074,145.370382 311.984139,134.642596 289.345653,134.642596 C264.905681,134.642596 253.276149,144.671516 250.333183,161.85432 C249.307284,167.844134 249.436967,174.266365 250.372052,180.616419 C250.722545,182.169078 251.128257,183.864404 251.586987,185.695609 C256.682502,166.83898 275.647371,156.248579 288.733217,156.248579 C313.549357,156.248579 330.230476,162.656777 354.098151,184.999482 C372.067437,201.820661 381.916249,226.438962 395.979797,258.740997 C407.400076,284.971806 428.828294,363.922621 428.709406,363.642397 C428.509035,363.170112 402.131004,288.335535 390.318504,263.171254 C375.671152,231.967862 366.894307,208.276157 346.881755,191.064893 C323.523638,170.976365 304.021179,164.248579 288.733217,164.248579 C273.445256,164.248579 261.663713,173.2775 258.720747,190.460303 C257.955834,194.926325 257.833336,199.632739 258.208105,204.370389 C258.433606,204.177739 258.662899,203.986352 258.896007,203.796357 C265.485683,198.425416 273.784973,195.196323 283.80091,195.196323 C295.47405,195.196323 306.162479,206.495063 316.700614,227.02943 C325.206281,243.603377 333.490482,266.057925 341.477514,292.968365 C347.668036,313.825882 356.69648,389.491641 356.64559,389.226718 C356.560245,388.782432 355.601182,383.920348 355.139953,381.660084 C353.821083,375.196939 352.282525,367.993001 350.539331,360.234059 C345.559958,338.070906 339.941769,315.91031 333.808183,295.244626 C316.884418,238.22395 298.908414,203.196323 283.80091,203.196323 C275.715146,203.196323 269.170579,205.742688 263.950281,209.997511 C262.275437,211.362599 260.853584,212.815419 259.680045,214.266512 C259.711882,214.405895 259.745337,214.550217 259.780033,214.698085 C260.880413,218.334431 262.053213,222.148576 263.293784,226.126174 C264.034206,228.50016 288.978641,287.526745 285.850777,287.526745 C282.722912,287.526745 268.418955,287.526745 271.734614,287.526745 C275.050274,287.526745 256.400505,230.893223 255.656619,228.508127 C254.906764,226.103895 254.182275,223.762988 253.48384,221.486875 L253.286559,221.550575 C253.204052,221.295049 252.581811,218.932071 252.101569,216.954342 C250.570594,211.901383 249.181086,207.199379 247.941511,202.866427 C238.524051,201.108451 226.086366,201.993749 211.160982,209.154527 C198.052062,215.443816 186.312052,232.857102 173.724485,256.628919 C164.332815,274.365236 154.99305,321.517814 153.417626,329.489041 C151.842202,337.460267 141.463058,391.019668 141.358338,390.750297 C141.186108,390.307269 140.986984,389.788576 140.763203,389.197846 C140.12641,387.516861 142.489602,367.012063 143.634928,359.539913 C145.39932,348.028965 147.12813,338.634319 148.030276,329.489041 C148.932422,320.343762 158.064545,272.475764 166.366982,252.765173 C178.888599,223.037941 191.543717,209.066702 207.931316,201.835425 C222.58506,195.369237 235.264641,193.429557 245.60382,194.472175 C245.456458,193.92584 245.312286,193.387317 245.171327,192.856659 L244.898995,192.944592 C244.782914,192.585086 244.595636,191.954964 244.361319,191.082975 C243.978957,189.660044 243.59847,188.054044 243.244219,186.293354 C243.004017,185.099512 242.78732,183.899463 242.596178,182.695344 C241.964371,181.849382 241.221394,180.864919 240.599969,180.165017 C237.852283,177.070341 225.416512,162.973178 222.412589,159.410075 C220.560751,157.213518 218.969217,155.140499 217.476473,153.2394 C217.195124,153.23277 216.912607,153.229434 216.628926,153.229434 C203.894661,153.229434 190.988572,155.73303 177.95306,160.576054 C175.647684,163.84362 173.469772,166.962061 171.540163,169.382593 C164.348617,178.40378 154.968926,193.765321 147.47552,208.167871 C142.08237,218.533665 112.477667,277.802939 112.580125,277.486395 C112.870934,276.587943 124.295057,245.909927 129.399203,235.113703 C138.071955,216.76921 153.902526,186.347177 169.529286,164.021854 C160.247262,168.164058 150.904738,173.464955 141.516833,179.866002 C133.971727,194.412711 119.116246,223.121325 119.204629,222.848267 C119.409922,222.214018 126.665527,201.882443 132.710645,186.181585 C111.540313,202.107477 90.7132504,223.108123 70.529573,247.97987 C53.5666276,268.882804 0,339.85531 0,339.85531 C0.0530369574,339.752507 12.5583854,317.466454 17.4389742,309.523356 C31.3825745,286.83032 47.1155392,264.136488 64.3176531,242.938833 C86.4906983,215.615648 109.484523,192.817352 133.012336,176.044226 C134.767765,174.79277 136.522929,173.577246 138.277751,172.39806 C138.549298,171.783872 138.803427,171.225487 139.037866,170.729607 C153.994737,139.093026 174.431319,123.508759 194.206078,123.508759 C209.763082,123.508759 220.626631,125.805373 232.494389,135.032969 C235.915266,137.69282 238.97259,140.508278 241.659779,143.354438 C241.717429,142.476147 241.778089,141.59579 241.841822,140.713601 C233.321366,109.289931 193.666937,64.8368829 166.354347,44.0451604 C122.611505,10.7459008 70.2129896,0.248579141 18.0302651,0.248579141 C18.0302651,0.248579141 124.791003,6.22382739 171.745185,39.2822744 C207.13969,64.2020432 233.134765,97.5882761 243.048758,127.252975 C243.177213,126.059369 243.31169,124.864615 243.452332,123.669259 Z M240.792705,171.593706 C240.776186,171.271705 240.767885,170.96949 240.767885,170.68724 C240.767885,168.082599 240.792372,165.430148 240.843417,162.73777 C239.575582,161.60248 238.138508,160.475638 236.540788,159.40787 C233.723085,157.524778 230.699629,156.011183 227.477645,154.953466 C230.11072,158.249005 232.710127,161.551493 235.414628,164.472962 C237.121809,166.317101 238.9819,168.960491 240.792705,171.593706 Z M219.1681,145.302524 C227.310026,145.773664 234.613624,148.49784 240.985943,152.75651 C241.039583,152.792358 241.093075,152.828262 241.146417,152.864222 C241.168667,152.340232 241.19195,151.815157 241.216282,151.289051 C240.995652,150.788406 240.710656,150.168492 240.481339,149.872252 C239.796812,148.987955 238.554882,147.24052 237.599969,146.165017 C234.852283,143.070341 230.863734,139.049954 227.143632,136.157445 C216.584061,127.94701 207.816108,125.634178 194.206078,125.634177 C186.372217,125.634177 177.688662,130.565228 169.09134,139.093026 C162.277521,145.851744 155.517868,154.869715 149.278314,165.48268 C159.141908,159.712792 168.98963,155.120061 178.807826,151.776641 C186.813383,142.177845 194.357752,135.91973 200.376367,135.919731 C207.868713,135.919731 213.826924,139.902051 219.1681,145.302524 Z M210.138351,145.427772 C206.927792,143.034939 203.045096,141.646187 197.206078,141.646187 C193.910098,141.646187 190.11729,144.959118 186.293559,149.469124 C194.266099,147.270492 202.21681,145.910434 210.138351,145.427772 Z" id="Path-1" fill="#9CC228" fill-rule="nonzero"></path>
        </g>
    </g>
</svg>